<svg xmlns="http://www.w3.org/2000/svg" width="49.637" height="43" viewBox="0 0 49.637 43"><g id="Group_1158" data-name="Group 1158" transform="translate(-1.5 -7.984)"><path id="Path_3277" fill="#fff" d="M1.5,60.759V71.88l8.424,3.274,8.424-3.274V60.759L9.924,57.485Zm1.535,2.255,6.121,2.38V73.21L3.035,70.83ZM16.813,70.83l-6.122,2.38V65.393l6.122-2.38Zm-6.865-6.8H9.9L3.6,61.588l6.32-2.457,6.32,2.457Z" data-name="Path 3277" transform="translate(0 -24.17)"/><path id="Path_3278" fill="#fff" d="M74,57.484l-8.424,3.274V71.879L74,75.153l8.424-3.273V60.758ZM67.11,63.013l6.121,2.38v7.817L67.11,70.83ZM80.888,70.83l-6.122,2.38V65.393l6.122-2.38Zm-6.865-6.8h-.049l-6.3-2.447L74,59.131l6.32,2.457Z" data-name="Path 3278" transform="translate(-31.286 -24.17)"/><path id="Path_3279" fill="#fff" d="M51.348,22.381V11.259L42.924,7.984,34.5,11.258V22.38l8.424,3.274ZM49.813,21.33l-6.122,2.379V15.893l6.122-2.379Zm-6.889-11.7,6.32,2.457-6.3,2.447H42.9l-6.3-2.447Zm-6.889,3.882,6.121,2.379v7.817L36.035,21.33Z" data-name="Path 3279" transform="translate(-16.113)"/><rect id="Rectangle_2638" width="1.535" height="1.535" fill="#f01930" data-name="Rectangle 2638" transform="translate(20.425 41.302)"/><rect id="Rectangle_2639" width="1.535" height="1.535" fill="#f01930" data-name="Rectangle 2639" transform="translate(29.635 41.302)"/><rect id="Rectangle_2640" width="1.535" height="1.535" fill="#f01930" data-name="Rectangle 2640" transform="translate(26.566 41.302)"/><rect id="Rectangle_2641" width="1.535" height="1.535" fill="#f01930" data-name="Rectangle 2641" transform="translate(23.495 41.302)"/><rect id="Rectangle_2642" width="1.535" height="1.535" fill="#f01930" data-name="Rectangle 2642" transform="translate(15.03 33.083) rotate(-45)"/><rect id="Rectangle_2643" width="1.535" height="1.535" fill="#f01930" data-name="Rectangle 2643" transform="translate(21.542 26.57) rotate(-45)"/><rect id="Rectangle_2644" width="1.535" height="1.535" fill="#f01930" data-name="Rectangle 2644" transform="translate(19.371 28.741) rotate(-45)"/><rect id="Rectangle_2645" width="1.535" height="1.535" fill="#f01930" data-name="Rectangle 2645" transform="translate(17.2 30.913) rotate(-45)"/><rect id="Rectangle_2646" width="1.535" height="1.535" fill="#f01930" data-name="Rectangle 2646" transform="translate(37.228 33.084) rotate(-45)"/><rect id="Rectangle_2647" width="1.535" height="1.535" fill="#f01930" data-name="Rectangle 2647" transform="translate(32.885 28.741) rotate(-45)"/><rect id="Rectangle_2648" width="1.535" height="1.535" fill="#f01930" data-name="Rectangle 2648" transform="translate(35.057 30.912) rotate(-45)"/><rect id="Rectangle_2649" width="1.535" height="1.535" fill="#f01930" data-name="Rectangle 2649" transform="translate(30.714 26.57) rotate(-45)"/></g></svg>