<svg xmlns="http://www.w3.org/2000/svg" width="53.447" height="40" viewBox="0 0 53.447 40"><g id="Group_430" data-name="Group 430" transform="translate(-787.614 -349.767)"><path id="Path_39" fill="#fff" d="M153.436,239.4a4.886,4.886,0,1,0-5.683,4.585v9.073a8.436,8.436,0,0,0-2.466-.574v-.789a4.614,4.614,0,0,0-4.692-4.482h-8.544v-2.926a2.055,2.055,0,0,0-2.065-2.018h-6.63v-2.843a.78.78,0,0,0-1.557,0v2.843h-6.52a2.037,2.037,0,0,0-2.044,2.018v2.926h-8.564A4.6,4.6,0,0,0,100,251.692V270.3a4.591,4.591,0,0,0,4.672,4.475H140.6a4.61,4.61,0,0,0,4.692-4.475v-.789a8.835,8.835,0,0,0,7.9-6.471,8.352,8.352,0,0,0-3.88-9.213v-9.842a4.737,4.737,0,0,0,4.125-4.585Zm-38.643,4.887a.516.516,0,0,1,.487-.535h14.707a.533.533,0,0,1,.507.535v2.926h-15.7ZM143.731,270.3a3.086,3.086,0,0,1-3.135,2.992H104.672a3.068,3.068,0,0,1-3.114-2.992V251.692a3.073,3.073,0,0,1,3.114-3H140.6a3.091,3.091,0,0,1,3.135,3Zm8.2-9.3a7.182,7.182,0,0,1-6.638,7.027V253.969a7.181,7.181,0,0,1,6.638,7.026Zm-6.658-21.6a3.323,3.323,0,1,1,3.319,3.161,3.242,3.242,0,0,1-3.319-3.161Zm0,0" data-name="Path 39" transform="translate(687.614 114.994)"/><g id="Group_429" data-name="Group 429" transform="translate(795.832 368.578)"><path id="Path_40" fill="#da1931" d="M161.26,410.551a3.387,3.387,0,0,0-3.383,3.383V416.1a.733.733,0,0,0,.749.756h5.2a.789.789,0,0,0,.813-.756v-2.169a3.387,3.387,0,0,0-3.383-3.383Zm1.821,4.746h-3.643v-1.363a1.822,1.822,0,1,1,3.643,0Zm0,0" data-name="Path 40" transform="translate(-157.876 -410.551)"/><path id="Path_41" fill="#da1931" d="M338.5,413.934V416.1a.77.77,0,0,0,.792.756h5.2a.751.751,0,0,0,.769-.756v-2.169a3.383,3.383,0,0,0-6.766,0Zm5.2,0V415.3h-3.643v-1.363a1.822,1.822,0,1,1,3.643,0Zm0,0" data-name="Path 41" transform="translate(-314.945 -410.551)"/><path id="Path_42" fill="#da1931" d="M240.122,479.672a.787.787,0,0,0-.781-.789H228.932a.786.786,0,0,0-.78.789,5.985,5.985,0,0,0,11.97,0Zm-5.985,4.416a4.419,4.419,0,0,1-4.355-3.643h8.71a4.419,4.419,0,0,1-4.355,3.643Zm0,0" data-name="Path 42" transform="translate(-218.989 -469.973)"/></g></g></svg>