<svg xmlns="http://www.w3.org/2000/svg" width="43.374" height="40.75" viewBox="0 0 43.374 40.75">
  <g id="Group_434" data-name="Group 434" transform="translate(-994 -364)">
    <g id="Rectangle_2397" data-name="Rectangle 2397" transform="translate(994 364)" fill="#17263f" stroke="#fff" stroke-width="1.5">
      <rect width="43.373" height="28.5" rx="4" stroke="none"/>
      <rect x="0.75" y="0.75" width="41.873" height="27" rx="3.25" fill="none"/>
    </g>
    <g id="Group_431" data-name="Group 431" transform="translate(1007.164 370)">
      <path id="Path_67" data-name="Path 67" d="M239.648,355.344V345.178a.749.749,0,0,0-.748-.748h-3.34a.749.749,0,0,0-.748.748v10.166a.749.749,0,0,0,.748.748h3.34a.749.749,0,0,0,.748-.748Zm-1.122-.374h-2.592v-9.418h2.592Zm0,0" transform="translate(-234.812 -338.094)" fill="#f01930"/>
      <path id="Path_68" data-name="Path 68" d="M287.353,331.675h3.34a.749.749,0,0,0,.748-.748V317.283a.749.749,0,0,0-.748-.748h-3.34a.749.749,0,0,0-.748.748v13.644a.749.749,0,0,0,.748.748Zm.374-14.018h2.592v12.9h-2.592Zm0,0" transform="translate(-280.148 -313.677)" fill="#f01930"/>
      <path id="Path_69" data-name="Path 69" d="M342.486,293.609h-3.34a.749.749,0,0,0-.748.748v16.5a.749.749,0,0,0,.748.748h3.34a.749.749,0,0,0,.748-.748v-16.5a.749.749,0,0,0-.748-.748Zm-.374,16.876H339.52V294.731h2.592Zm0,0" transform="translate(-325.484 -293.609)" fill="#f01930"/>
    </g>
    <g id="Group_433" data-name="Group 433" transform="translate(1008.209 392.786)">
      <line id="Line_3" data-name="Line 3" y2="11" transform="translate(7 0.214)" fill="none" stroke="#fff" stroke-linecap="round" stroke-width="1.5"/>
      <line id="Line_4" data-name="Line 4" y2="12" transform="translate(6.18 0) rotate(31)" fill="none" stroke="#fff" stroke-linecap="round" stroke-width="1.5"/>
      <line id="Line_5" data-name="Line 5" y2="12" transform="translate(14.18 10.286) rotate(149)" fill="none" stroke="#fff" stroke-linecap="round" stroke-width="1.5"/>
    </g>
  </g>
</svg>
