<svg xmlns="http://www.w3.org/2000/svg" width="36.935" height="42.054" viewBox="0 0 36.935 42.054">
  <g id="Group_462" data-name="Group 462" transform="translate(-632.14 -353.948)">
    <path id="Path_178" data-name="Path 178" d="M620.7,143.555l-.106-.046a78.431,78.431,0,0,1-16.045-9.29,1.092,1.092,0,0,0-1.31,0,78.425,78.425,0,0,1-16.044,9.289l-.108.046a1.092,1.092,0,0,0-.661,1v9.5c0,6.146,2.937,11.544,8.493,15.611a29.933,29.933,0,0,0,8.384,4.288,1.093,1.093,0,0,0,.6,0,31.423,31.423,0,0,0,8.664-4.28c5.751-4.067,8.791-9.468,8.791-15.621v-9.5a1.091,1.091,0,0,0-.662-1Z" transform="translate(46.71 220.999)" fill="#101a2b" stroke="#fff" stroke-miterlimit="10" stroke-width="2"/>
    <path id="Path_180" data-name="Path 180" d="M650.073,222.985a1.093,1.093,0,1,0-1.546,1.545l3.712,3.711a1.093,1.093,0,0,0,1.546,0l6.525-6.525a1.093,1.093,0,1,0-1.546-1.545l-5.753,5.752Zm0,0" transform="translate(-3.81 150.793)" fill="#f01930"/>
  </g>
</svg>
