<svg xmlns="http://www.w3.org/2000/svg" xmlns:xlink="http://www.w3.org/1999/xlink" width="56" height="40" viewBox="0 0 56 40">
  <defs>
    <clipPath id="clip-path">
      <rect id="Rectangle_2402" data-name="Rectangle 2402" width="56" height="40" fill="#fff"/>
    </clipPath>
    <clipPath id="clip-path-2">
      <rect id="Rectangle_2405" data-name="Rectangle 2405" width="56" height="40" fill="none"/>
    </clipPath>
  </defs>
  <g id="Group_1184" data-name="Group 1184" transform="translate(-1075 -4027)">
    <g id="Group_443" data-name="Group 443" transform="translate(1075 4027)">
      <g id="Group_442" data-name="Group 442" transform="translate(0 0)" clip-path="url(#clip-path)">
        <path id="Path_1789" data-name="Path 1789" d="M782.966,421.446a5.588,5.588,0,1,1,5.588-5.588,5.588,5.588,0,0,1-5.588,5.588Zm0-9.58a3.992,3.992,0,1,0,3.992,3.992,3.992,3.992,0,0,0-3.992-3.992Zm0,0" transform="translate(-777.319 -410.228)" fill="#fff"/>
        <path id="Path_1790" data-name="Path 1790" d="M1073.561,421.446a5.588,5.588,0,1,1,5.588-5.588,5.588,5.588,0,0,1-5.588,5.588Zm0-9.58a3.992,3.992,0,1,0,3.992,3.992,3.991,3.991,0,0,0-3.992-3.992Zm0,0" transform="translate(-1023.207 -410.228)" fill="#fff"/>
      </g>
    </g>
    <path id="Path_1791" data-name="Path 1791" d="M933.055,426.638h-9.581a.8.8,0,0,1-.8-.8v-9.58a.8.8,0,0,1,.8-.8h9.581a.8.8,0,0,1,.8.8v9.58a.8.8,0,0,1-.8.8Zm-8.782-1.6h7.983v-7.984h-7.983Zm0,0" transform="translate(174.736 3612.379)" fill="#fff"/>
    <path id="Path_1792" data-name="Path 1792" d="M1002.139,469.3l-1.526-.469a16.849,16.849,0,0,0,.728-4.954,17.2,17.2,0,0,0-12.586-16.546l.424-1.54a18.8,18.8,0,0,1,13.759,18.087,18.469,18.469,0,0,1-.8,5.424Zm0,0" transform="translate(118.824 3586.717)" fill="#fff"/>
    <path id="Path_1793" data-name="Path 1793" d="M837.853,469.306a18.467,18.467,0,0,1-.8-5.424A18.8,18.8,0,0,1,850.813,445.8l.424,1.54a17.2,17.2,0,0,0-12.585,16.546,16.854,16.854,0,0,0,.731,4.954Zm0,0" transform="translate(247.185 3586.71)" fill="#fff"/>
    <rect id="Rectangle_2403" data-name="Rectangle 2403" width="12.773" height="1.597" transform="translate(1107.79 4031.832)" fill="#fff"/>
    <g id="Group_445" data-name="Group 445" transform="translate(1075 4027)">
      <g id="Group_444" data-name="Group 444" transform="translate(0 0)" clip-path="url(#clip-path-2)">
        <path id="Path_3280" data-name="Path 3280" d="M0,0H12.773V1.6H0Z" transform="translate(10.436 4.832)" fill="#fff"/>
        <path id="Path_1794" data-name="Path 1794" d="M912.441,539.2a.8.8,0,0,1-.46-.146l-8.9-6.279-8.9,6.279a.8.8,0,0,1-1.2-.964l9.365-22.136a.8.8,0,0,1,1.47,0l9.362,22.136a.8.8,0,0,1-.734,1.11Zm-9.363-8.2a.8.8,0,0,1,.46.146l7.078,4.993-7.538-17.823-7.538,17.823,7.078-4.993a.8.8,0,0,1,.46-.146Zm0,0" transform="translate(-875.078 -499.238)" fill="#f01930"/>
      </g>
    </g>
  </g>
</svg>
