<svg xmlns="http://www.w3.org/2000/svg" width="52.942" height="44.964" viewBox="0 0 52.942 44.964">
  <g id="Group_1149" data-name="Group 1149" transform="translate(-899.25 -550.25)">
    <line id="Line_6" data-name="Line 6" y1="10.665" transform="translate(925.686 566.86)" fill="none" stroke="#f01930" stroke-width="1.5"/>
    <path id="Path_1800" data-name="Path 1800" d="M4943.117,4815.8v-6.227h36.409v6.227" transform="translate(-4035.525 -4238.276)" fill="none" stroke="#f01930" stroke-width="1.5"/>
    <g id="Icon_feather-settings" data-name="Icon feather-settings" transform="translate(917.726 551)">
      <path id="Path_1801" data-name="Path 1801" d="M17.3,15.4a1.9,1.9,0,1,1-1.9-1.9A1.9,1.9,0,0,1,17.3,15.4Z" transform="translate(-7.4 -7.4)" fill="none" stroke="#f0263c" stroke-linecap="round" stroke-linejoin="round" stroke-width="1.5"/>
      <path id="Path_1802" data-name="Path 1802" d="M14.882,11.682a1.2,1.2,0,0,0,.24,1.324l.044.044a1.455,1.455,0,1,1-2.058,2.058l-.044-.044a1.21,1.21,0,0,0-2.051.858v.124a1.455,1.455,0,1,1-2.909,0V15.98a1.2,1.2,0,0,0-.785-1.1,1.2,1.2,0,0,0-1.324.24l-.044.044a1.455,1.455,0,1,1-2.058-2.058l.044-.044a1.21,1.21,0,0,0-.858-2.051H2.955a1.455,1.455,0,1,1,0-2.909H3.02a1.2,1.2,0,0,0,1.1-.785,1.2,1.2,0,0,0-.24-1.324l-.044-.044A1.455,1.455,0,1,1,5.893,3.893l.044.044a1.2,1.2,0,0,0,1.324.24h.058a1.2,1.2,0,0,0,.727-1.1V2.955a1.455,1.455,0,1,1,2.909,0V3.02a1.21,1.21,0,0,0,2.051.858l.044-.044a1.455,1.455,0,1,1,2.058,2.058l-.044.044a1.2,1.2,0,0,0-.24,1.324v.058a1.2,1.2,0,0,0,1.1.727h.124a1.455,1.455,0,1,1,0,2.909H15.98a1.2,1.2,0,0,0-1.1.727Z" transform="translate(-1.5 -1.5)" fill="none" stroke="#f0263c" stroke-linecap="round" stroke-linejoin="round" stroke-width="1.5"/>
    </g>
    <g id="Group_448" data-name="Group 448" transform="translate(900 577.525)">
      <g id="Icon_feather-user" data-name="Icon feather-user" transform="translate(0 0)">
        <path id="Path_1798" data-name="Path 1798" d="M21.056,28.146V26.264A3.764,3.764,0,0,0,17.292,22.5H9.764A3.764,3.764,0,0,0,6,26.264v1.882" transform="translate(-6 -11.208)" fill="none" stroke="#fff" stroke-linecap="round" stroke-linejoin="round" stroke-width="1.5"/>
        <path id="Path_1799" data-name="Path 1799" d="M19.528,8.264A3.764,3.764,0,1,1,15.764,4.5a3.764,3.764,0,0,1,3.764,3.764Z" transform="translate(-8.236 -4.5)" fill="none" stroke="#fff" stroke-linecap="round" stroke-linejoin="round" stroke-width="1.5"/>
      </g>
      <g id="Icon_feather-user-2" data-name="Icon feather-user" transform="translate(18.193 0)">
        <path id="Path_1798-2" data-name="Path 1798" d="M21.056,28.146V26.264A3.764,3.764,0,0,0,17.292,22.5H9.764A3.764,3.764,0,0,0,6,26.264v1.882" transform="translate(-6 -11.208)" fill="none" stroke="#fff" stroke-linecap="round" stroke-linejoin="round" stroke-width="1.5"/>
        <path id="Path_1799-2" data-name="Path 1799" d="M19.528,8.264A3.764,3.764,0,1,1,15.764,4.5a3.764,3.764,0,0,1,3.764,3.764Z" transform="translate(-8.236 -4.5)" fill="none" stroke="#fff" stroke-linecap="round" stroke-linejoin="round" stroke-width="1.5"/>
      </g>
      <g id="Icon_feather-user-3" data-name="Icon feather-user" transform="translate(36.386 0)">
        <path id="Path_1798-3" data-name="Path 1798" d="M21.056,28.146V26.264A3.764,3.764,0,0,0,17.292,22.5H9.764A3.764,3.764,0,0,0,6,26.264v1.882" transform="translate(-6 -11.208)" fill="none" stroke="#fff" stroke-linecap="round" stroke-linejoin="round" stroke-width="1.5"/>
        <path id="Path_1799-3" data-name="Path 1799" d="M19.528,8.264A3.764,3.764,0,1,1,15.764,4.5a3.764,3.764,0,0,1,3.764,3.764Z" transform="translate(-8.236 -4.5)" fill="none" stroke="#fff" stroke-linecap="round" stroke-linejoin="round" stroke-width="1.5"/>
      </g>
    </g>
  </g>
</svg>
