<svg xmlns="http://www.w3.org/2000/svg" width="40" height="40" viewBox="0 0 40 40">
  <g id="Group_428" data-name="Group 428" transform="translate(-432 -352)">
    <g id="Ellipse_23" data-name="Ellipse 23" transform="translate(432 352)" fill="none" stroke="#fff" stroke-width="2">
      <circle cx="20" cy="20" r="20" stroke="none"/>
      <circle cx="20" cy="20" r="19" fill="none"/>
    </g>
    <g id="Group_427" data-name="Group 427" transform="translate(279.946 -6.834)">
      <path id="Path_20" data-name="Path 20" d="M241.673,330.633a3.361,3.361,0,1,0-3.361-3.362,3.361,3.361,0,0,0,3.361,3.362Zm0-5.1a1.738,1.738,0,1,1-1.738,1.738,1.738,1.738,0,0,1,1.738-1.738Zm0,0" transform="translate(-74.258 46.175)" fill="#f01930"/>
      <path id="Path_21" data-name="Path 21" d="M313.953,415.228a3.361,3.361,0,1,0,3.361-3.361,3.361,3.361,0,0,0-3.361,3.361Zm5.1,0a1.738,1.738,0,1,1-1.738-1.738,1.738,1.738,0,0,1,1.738,1.738Zm0,0" transform="translate(-141.129 -31.584)" fill="#f01930"/>
      <path id="Path_22" data-name="Path 22" d="M249.89,332.208a.812.812,0,0,0,1.123-.236l11.473-17.592a.812.812,0,1,0-1.36-.887l-11.473,17.592a.811.811,0,0,0,.236,1.123Zm0,0" transform="translate(-84.168 55.711)" fill="#f01930"/>
    </g>
  </g>
</svg>
