<svg xmlns="http://www.w3.org/2000/svg" width="701.336" height="566.156" viewBox="0 0 701.336 566.156">
  <g id="Group_1206" data-name="Group 1206" transform="translate(-1102.798 -2580.984)">
    <path id="Path_3262" data-name="Path 3262" d="M3489.742,4710.961s49.879,18.672,42.289,46.184,49.891,34.91,49.891,34.91" transform="translate(-1978 -1823)" fill="none" stroke="#17263f" stroke-width="2" stroke-dasharray="4 4" opacity="0.5"/>
    <path id="Path_3261" data-name="Path 3261" d="M3418.395,4718.871s43.738,51.965,5.91,82.168-5.91,76.613-5.91,76.613" transform="translate(-1978 -1823)" fill="none" stroke="#17263f" stroke-width="2" stroke-dasharray="4 4" opacity="0.5"/>
    <path id="Path_3260" data-name="Path 3260" d="M3361.414,4710.961s20.617,46.367-20.57,53.813A97.458,97.458,0,0,0,3316,4772.5c-19.578,9.324-23.86,22.054-23.86,22.054" transform="translate(-1978 -1823)" fill="none" stroke="#17263f" stroke-width="2" stroke-dasharray="4 4" opacity="0.5"/>
    <path id="Path_3259" data-name="Path 3259" d="M3509.852,4678.379s40.984,28.379,37.508-28.383,40.324-61.289,40.324-61.289" transform="translate(-1978 -1823)" fill="none" stroke="#17263f" stroke-width="2" stroke-dasharray="4 4" opacity="0.5"/>
    <path id="Path_3258" data-name="Path 3258" d="M3352.516,4662.918s-31.629,33.09-54.18,0-45.145-39.891-45.145-39.891" transform="translate(-1975 -1846)" fill="none" stroke="#17263f" stroke-width="2" stroke-dasharray="4 4" opacity="0.5"/>
    <circle id="Ellipse_83" data-name="Ellipse 83" cx="50" cy="50" r="50" transform="translate(1393 3021)" fill="#e0ecff"/>
    <circle id="Ellipse_85" data-name="Ellipse 85" cx="50" cy="50" r="50" transform="translate(1589 2693)" fill="#e0ecff"/>
    <path id="Path_3299" data-name="Path 3299" d="M.8,0V-9.016h1.89V0ZM4.564,0V-9.016H6.2l4.27,6.006V-9.016h1.89V0H10.724L6.454-6.006V0Zm9.674,0V-9.016h1.638l4.27,6.006V-9.016h1.89V0H20.4l-4.27-6.006V0ZM28.014.14q-4.382,0-4.382-4.606A4.919,4.919,0,0,1,24.738-8.05a4.444,4.444,0,0,1,3.276-1.106A4.444,4.444,0,0,1,31.29-8.05,4.919,4.919,0,0,1,32.4-4.466Q32.4.14,28.014.14Zm0-1.61A2.263,2.263,0,0,0,29.883-2.2a3.559,3.559,0,0,0,.6-2.261,3.7,3.7,0,0,0-.6-2.387,2.333,2.333,0,0,0-1.869-.693,2.333,2.333,0,0,0-1.869.693,3.7,3.7,0,0,0-.6,2.387,3.559,3.559,0,0,0,.6,2.261A2.263,2.263,0,0,0,28.014-1.47ZM36.6,0,33.152-9.016h1.974l2.492,6.9,2.506-6.9H42.1L38.668,0Zm4.928,0,3.444-9.016H47.04L50.47,0H48.51l-.854-2.17H44.338L43.5,0Zm3.094-3.626h2.758L45.99-7.252ZM53.088,0V-7.56H50.316V-9.016h7.42V-7.56H54.978V0Zm5.964,0V-9.016h1.89V0ZM66.92.14q-4.382,0-4.382-4.606A4.919,4.919,0,0,1,63.644-8.05,4.444,4.444,0,0,1,66.92-9.156,4.444,4.444,0,0,1,70.2-8.05,4.919,4.919,0,0,1,71.3-4.466Q71.3.14,66.92.14Zm0-1.61A2.263,2.263,0,0,0,68.789-2.2a3.559,3.559,0,0,0,.6-2.261,3.7,3.7,0,0,0-.6-2.387,2.333,2.333,0,0,0-1.869-.693,2.333,2.333,0,0,0-1.869.693,3.7,3.7,0,0,0-.6,2.387,3.559,3.559,0,0,0,.6,2.261A2.263,2.263,0,0,0,66.92-1.47ZM72.9,0V-9.016h1.638l4.27,6.006V-9.016H80.7V0H79.058l-4.27-6.006V0Z" transform="translate(1698 2757)" fill="#16243c"/>
    <path id="Path_3296" data-name="Path 3296" d="M5.194.14A4.652,4.652,0,0,1,1.722-1.085a4.557,4.557,0,0,1-1.2-3.339A4.9,4.9,0,0,1,1.687-7.91,4.566,4.566,0,0,1,5.18-9.156a8.177,8.177,0,0,1,1.463.119,7.469,7.469,0,0,1,1.225.329v1.652a6.626,6.626,0,0,0-2.548-.49,2.8,2.8,0,0,0-2.212.77,3.5,3.5,0,0,0-.672,2.352q0,2.968,2.912,2.968a7.15,7.15,0,0,0,1.3-.119,6.349,6.349,0,0,0,1.232-.357V-.266A9.229,9.229,0,0,1,6.657.028,8.676,8.676,0,0,1,5.194.14ZM9.478,0V-9.016H13.8a2.9,2.9,0,0,1,2.282.819,3.2,3.2,0,0,1,.728,2.205,2.631,2.631,0,0,1-.469,1.568,2.616,2.616,0,0,1-1.323.952,1.64,1.64,0,0,1,.357.392,3.494,3.494,0,0,1,.273.56L16.744,0h-1.96L13.72-2.422a1.1,1.1,0,0,0-.308-.434.953.953,0,0,0-.56-.126H11.368V0Zm1.89-4.55h1.946a1.84,1.84,0,0,0,1.162-.329,1.332,1.332,0,0,0,.42-1.113A1.475,1.475,0,0,0,14.532-7.1a1.542,1.542,0,0,0-1.106-.35H11.368ZM18.41,0V-9.016h6.468v1.47H20.3v2.31h4.06V-3.78H20.3v2.324h4.578V0Zm7.784,0,3.444-9.016H31.71L35.14,0H33.18l-.854-2.17H29.008L28.168,0Zm3.094-3.626h2.758L30.66-7.252ZM37.758,0V-7.56H34.986V-9.016h7.42V-7.56H39.648V0Zm5.964,0V-9.016h1.89V0Zm6.72,0L47-9.016h1.974l2.492,6.9,2.506-6.9h1.974L52.514,0ZM57.19,0V-9.016h1.89V0Zm5.978,0V-7.56H60.4V-9.016h7.42V-7.56H65.058V0Zm8.778,0V-3.332L68.712-9.016h1.974L72.9-4.942,75.11-9.016h1.96L73.836-3.332V0Z" transform="translate(1119 2986)" fill="#16263e"/>
    <path id="Path_3294" data-name="Path 3294" d="M.8,0V-9.016H7.266v1.47H2.688v2.31h4.06V-3.78H2.688v2.324H7.266V0ZM8.862,0V-9.016h1.9L13.412-3.6l2.646-5.418h1.89V0h-1.89V-5.866l-2.1,4.312H12.866L10.752-5.866V0ZM19.824,0V-9.016h4.228a3.358,3.358,0,0,1,1.743.406A2.552,2.552,0,0,1,26.81-7.5a3.644,3.644,0,0,1,.336,1.6,3.286,3.286,0,0,1-.385,1.61,2.687,2.687,0,0,1-1.092,1.085A3.447,3.447,0,0,1,24-2.828H21.714V0Zm1.89-4.326H23.6a1.629,1.629,0,0,0,1.225-.427,1.591,1.591,0,0,0,.413-1.155,1.674,1.674,0,0,0-.392-1.2,1.548,1.548,0,0,0-1.176-.413h-1.96ZM27.076,0,30.52-9.016h2.072L36.022,0h-1.96l-.854-2.17H29.89L29.05,0ZM30.17-3.626h2.758L31.542-7.252ZM38.64,0V-7.56H35.868V-9.016h7.42V-7.56H40.53V0ZM44.6,0V-9.016h1.89v3.78h3.934v-3.78h1.89V0h-1.89V-3.78H46.494V0ZM56.868,0V-3.332L53.634-9.016h1.974L57.82-4.942l2.212-4.074h1.96L58.758-3.332V0Z" transform="translate(1417 2590)" fill="#16263e"/>
    <path id="Path_3297" data-name="Path 3297" d="M.8,0V-9.016H7.266v1.47H2.688v2.31h4.06V-3.78H2.688v2.324H7.266V0ZM8.862,0V-9.016H10.5L14.77-3.01V-9.016h1.89V0H15.022l-4.27-6.006V0ZM22.876.14a4.634,4.634,0,0,1-3.444-1.19,4.5,4.5,0,0,1-1.176-3.3,4.972,4.972,0,0,1,1.19-3.521,4.6,4.6,0,0,1,3.542-1.281,10.794,10.794,0,0,1,1.47.091,6.938,6.938,0,0,1,1.246.287v1.624a6.244,6.244,0,0,0-1.239-.3,9.648,9.648,0,0,0-1.337-.091,2.855,2.855,0,0,0-2.282.791,3.64,3.64,0,0,0-.672,2.4q0,2.9,2.73,2.9a5.57,5.57,0,0,0,.931-.077,4.7,4.7,0,0,0,.805-.2v-2.1h-2.1v-1.2h3.7V-.63A5.051,5.051,0,0,1,24.948-.1,7.617,7.617,0,0,1,22.876.14ZM27.832,0V-9.016h1.89V0ZM31.6,0V-9.016h1.638l4.27,6.006V-9.016H39.4V0H37.758l-4.27-6.006V0Zm9.674,0V-9.016H47.74v1.47H43.162v2.31h4.06V-3.78h-4.06v2.324H47.74V0Zm8.064,0V-9.016H55.8v1.47H51.226v2.31h4.06V-3.78h-4.06v2.324H55.8V0ZM57.4,0V-9.016h4.326a2.9,2.9,0,0,1,2.282.819,3.2,3.2,0,0,1,.728,2.205,2.631,2.631,0,0,1-.469,1.568,2.616,2.616,0,0,1-1.323.952,1.64,1.64,0,0,1,.357.392,3.494,3.494,0,0,1,.273.56L64.666,0h-1.96L61.642-2.422a1.1,1.1,0,0,0-.308-.434.953.953,0,0,0-.56-.126H59.29V0Zm1.89-4.55h1.946A1.84,1.84,0,0,0,62.4-4.879a1.332,1.332,0,0,0,.42-1.113A1.475,1.475,0,0,0,62.454-7.1a1.542,1.542,0,0,0-1.106-.35H59.29ZM66.332,0V-9.016h1.89V0ZM70.1,0V-9.016h1.638l4.27,6.006V-9.016H77.9V0H76.258l-4.27-6.006V0ZM84.112.14a4.634,4.634,0,0,1-3.444-1.19,4.5,4.5,0,0,1-1.176-3.3,4.972,4.972,0,0,1,1.19-3.521,4.6,4.6,0,0,1,3.542-1.281,10.794,10.794,0,0,1,1.47.091,6.938,6.938,0,0,1,1.246.287v1.624a6.244,6.244,0,0,0-1.239-.3,9.648,9.648,0,0,0-1.337-.091,2.855,2.855,0,0,0-2.282.791,3.64,3.64,0,0,0-.672,2.4q0,2.9,2.73,2.9a5.57,5.57,0,0,0,.931-.077,4.7,4.7,0,0,0,.805-.2v-2.1h-2.1v-1.2h3.7V-.63A5.051,5.051,0,0,1,86.184-.1,7.617,7.617,0,0,1,84.112.14Z" transform="translate(1404 3147)" fill="#16263e"/>
    <path id="Path_3295" data-name="Path 3295" d="M.8,0V-9.016H7.266v1.47H2.688v2.31h4.06V-3.78H2.688v2.324H7.266V0ZM8.862,0V-9.016H15.2v1.47H10.752v2.31h3.934V-3.78H10.752V0ZM16.52,0V-9.016h6.342v1.47H18.41v2.31h3.934V-3.78H18.41V0Zm7.658,0V-9.016h1.89V0ZM32.34.14a4.653,4.653,0,0,1-3.472-1.225,4.557,4.557,0,0,1-1.2-3.339A4.9,4.9,0,0,1,28.833-7.91a4.566,4.566,0,0,1,3.493-1.246,8.177,8.177,0,0,1,1.463.119,7.469,7.469,0,0,1,1.225.329v1.652a6.626,6.626,0,0,0-2.548-.49,2.8,2.8,0,0,0-2.212.77,3.5,3.5,0,0,0-.672,2.352q0,2.968,2.912,2.968a7.15,7.15,0,0,0,1.3-.119,6.349,6.349,0,0,0,1.232-.357V-.266A9.229,9.229,0,0,1,33.8.028,8.676,8.676,0,0,1,32.34.14ZM36.624,0V-9.016h1.89V0ZM40.39,0V-9.016h6.468v1.47H42.28v2.31h4.06V-3.78H42.28v2.324h4.578V0Zm8.064,0V-9.016h1.638l4.27,6.006V-9.016h1.89V0H54.614l-4.27-6.006V0Zm14.07.14a4.652,4.652,0,0,1-3.472-1.225,4.557,4.557,0,0,1-1.2-3.339A4.9,4.9,0,0,1,59.017-7.91,4.566,4.566,0,0,1,62.51-9.156a8.177,8.177,0,0,1,1.463.119,7.469,7.469,0,0,1,1.225.329v1.652a6.626,6.626,0,0,0-2.548-.49,2.8,2.8,0,0,0-2.212.77,3.5,3.5,0,0,0-.672,2.352q0,2.968,2.912,2.968a7.15,7.15,0,0,0,1.3-.119,6.35,6.35,0,0,0,1.232-.357V-.266a9.229,9.229,0,0,1-1.225.294A8.676,8.676,0,0,1,62.524.14ZM69.412,0V-3.332L66.178-9.016h1.974l2.212,4.074,2.212-4.074h1.96L71.3-3.332V0Z" transform="translate(1102 2757)" fill="#16263e"/>
    <path id="Path_3298" data-name="Path 3298" d="M3.01,0V-7.56H.238V-9.016h7.42V-7.56H4.9V0ZM8.974,0V-9.016H13.3a2.9,2.9,0,0,1,2.282.819,3.2,3.2,0,0,1,.728,2.205,2.631,2.631,0,0,1-.469,1.568,2.616,2.616,0,0,1-1.323.952,1.64,1.64,0,0,1,.357.392,3.494,3.494,0,0,1,.273.56L16.24,0H14.28L13.216-2.422a1.1,1.1,0,0,0-.308-.434.953.953,0,0,0-.56-.126H10.864V0Zm1.89-4.55H12.81a1.84,1.84,0,0,0,1.162-.329,1.332,1.332,0,0,0,.42-1.113A1.475,1.475,0,0,0,14.028-7.1a1.542,1.542,0,0,0-1.106-.35H10.864ZM17,0,20.44-9.016h2.072L25.942,0h-1.96l-.854-2.17H19.81L18.97,0ZM20.09-3.626h2.758L21.462-7.252ZM27.538,0V-9.016h1.638l4.27,6.006V-9.016h1.89V0H33.7l-4.27-6.006V0ZM40.012.14A9.759,9.759,0,0,1,38.4.014,5.559,5.559,0,0,1,37.1-.35V-2.016a7.914,7.914,0,0,0,1.33.406,6.629,6.629,0,0,0,1.4.154,4.213,4.213,0,0,0,1.442-.182.786.786,0,0,0,.462-.826.983.983,0,0,0-.2-.644,1.651,1.651,0,0,0-.679-.427,13.875,13.875,0,0,0-1.365-.427,4.459,4.459,0,0,1-1.988-.98,2.226,2.226,0,0,1-.574-1.624,2.241,2.241,0,0,1,.91-1.918,4.411,4.411,0,0,1,2.646-.672A9.584,9.584,0,0,1,42-9.044a6.611,6.611,0,0,1,1.134.266v1.666a6.714,6.714,0,0,0-2.394-.434,4.072,4.072,0,0,0-1.386.189.76.76,0,0,0-.5.791.825.825,0,0,0,.182.56,1.552,1.552,0,0,0,.623.378,12.872,12.872,0,0,0,1.239.378,5.741,5.741,0,0,1,1.708.7,2.242,2.242,0,0,1,.833.924,2.823,2.823,0,0,1,.231,1.162,2.3,2.3,0,0,1-.9,1.89A4.392,4.392,0,0,1,40.012.14ZM45.262,0V-9.016H49.49a3.358,3.358,0,0,1,1.743.406A2.552,2.552,0,0,1,52.248-7.5a3.644,3.644,0,0,1,.336,1.6A3.286,3.286,0,0,1,52.2-4.3a2.687,2.687,0,0,1-1.092,1.085,3.447,3.447,0,0,1-1.673.385H47.152V0Zm1.89-4.326h1.89a1.629,1.629,0,0,0,1.225-.427,1.591,1.591,0,0,0,.413-1.155,1.674,1.674,0,0,0-.392-1.2,1.548,1.548,0,0,0-1.176-.413h-1.96ZM52.514,0l3.444-9.016H58.03L61.46,0H59.5l-.854-2.17H55.328L54.488,0Zm3.094-3.626h2.758L56.98-7.252ZM63.056,0V-9.016h4.326a2.9,2.9,0,0,1,2.282.819,3.2,3.2,0,0,1,.728,2.205,2.631,2.631,0,0,1-.469,1.568,2.616,2.616,0,0,1-1.323.952,1.64,1.64,0,0,1,.357.392,3.494,3.494,0,0,1,.273.56L70.322,0h-1.96L67.3-2.422a1.1,1.1,0,0,0-.308-.434.953.953,0,0,0-.56-.126H64.946V0Zm1.89-4.55h1.946a1.84,1.84,0,0,0,1.162-.329,1.332,1.332,0,0,0,.42-1.113A1.475,1.475,0,0,0,68.11-7.1,1.542,1.542,0,0,0,67-7.448H64.946ZM71.988,0V-9.016h6.468v1.47H73.878v2.31h4.06V-3.78h-4.06v2.324h4.578V0Zm8.064,0V-9.016H81.69L85.96-3.01V-9.016h1.89V0H86.212l-4.27-6.006V0Zm14.07.14A4.652,4.652,0,0,1,90.65-1.085a4.557,4.557,0,0,1-1.2-3.339A4.9,4.9,0,0,1,90.615-7.91a4.566,4.566,0,0,1,3.493-1.246,8.177,8.177,0,0,1,1.463.119,7.469,7.469,0,0,1,1.225.329v1.652a6.626,6.626,0,0,0-2.548-.49,2.8,2.8,0,0,0-2.212.77,3.5,3.5,0,0,0-.672,2.352q0,2.968,2.912,2.968a7.15,7.15,0,0,0,1.3-.119,6.35,6.35,0,0,0,1.232-.357V-.266a9.229,9.229,0,0,1-1.225.294A8.676,8.676,0,0,1,94.122.14ZM101.01,0V-3.332L97.776-9.016H99.75l2.212,4.074,2.212-4.074h1.96L102.9-3.332V0Z" transform="translate(1698 2986)" fill="#16263e"/>
    <circle id="Ellipse_82" data-name="Ellipse 82" cx="50" cy="50" r="50" transform="translate(1588 2937)" fill="#e0ecff"/>
    <circle id="Ellipse_84" data-name="Ellipse 84" cx="45" cy="45" r="45" transform="translate(1199 2716)" fill="#e0ecff"/>
    <g id="Group_1096" data-name="Group 1096" transform="translate(1416 3044)">
      <path id="Path_3238" data-name="Path 3238" d="M81.447,282.144h31.074a2.448,2.448,0,0,1,2.326,2.542V315.34a2.448,2.448,0,0,1-2.326,2.542H81.447a2.449,2.449,0,0,1-2.328-2.542V284.686A2.449,2.449,0,0,1,81.447,282.144Z" transform="translate(-69.483 -272.512)" fill="none" stroke="#f01930" stroke-linecap="round" stroke-linejoin="round" stroke-width="2" fill-rule="evenodd"/>
      <path id="Path_3239" data-name="Path 3239" d="M89.546,291.668h12.093a.953.953,0,0,1,.907.989v11.929a.954.954,0,0,1-.907.99H89.546a.954.954,0,0,1-.905-.99V292.657A.953.953,0,0,1,89.546,291.668Z" transform="translate(-68.093 -271.122)" fill="none" stroke="#17263f" stroke-linecap="round" stroke-linejoin="round" stroke-width="2" fill-rule="evenodd"/>
      <g id="Group_1075" data-name="Group 1075" transform="translate(0 17.457)">
        <g id="Group_1073" data-name="Group 1073" transform="translate(49.943)">
          <line id="Line_8" data-name="Line 8" x1="5.057" fill="none" stroke="#17263f" stroke-linecap="round" stroke-linejoin="round" stroke-width="2"/>
          <line id="Line_9" data-name="Line 9" x1="5.057" transform="translate(0 6.695)" fill="none" stroke="#17263f" stroke-linecap="round" stroke-linejoin="round" stroke-width="2"/>
          <line id="Line_10" data-name="Line 10" x1="5.057" transform="translate(0 13.39)" fill="none" stroke="#17263f" stroke-linecap="round" stroke-linejoin="round" stroke-width="2"/>
          <line id="Line_11" data-name="Line 11" x1="5.057" transform="translate(0 20.085)" fill="none" stroke="#17263f" stroke-linecap="round" stroke-linejoin="round" stroke-width="2"/>
        </g>
        <g id="Group_1074" data-name="Group 1074">
          <line id="Line_12" data-name="Line 12" x1="5.056" fill="none" stroke="#17263f" stroke-linecap="round" stroke-linejoin="round" stroke-width="2"/>
          <line id="Line_13" data-name="Line 13" x1="5.056" transform="translate(0 6.695)" fill="none" stroke="#17263f" stroke-linecap="round" stroke-linejoin="round" stroke-width="2"/>
          <line id="Line_14" data-name="Line 14" x1="5.056" transform="translate(0 13.39)" fill="none" stroke="#17263f" stroke-linecap="round" stroke-linejoin="round" stroke-width="2"/>
          <line id="Line_15" data-name="Line 15" x1="5.056" transform="translate(0 20.085)" fill="none" stroke="#17263f" stroke-linecap="round" stroke-linejoin="round" stroke-width="2"/>
        </g>
      </g>
      <g id="Group_1078" data-name="Group 1078" transform="translate(17.458 0)">
        <g id="Group_1076" data-name="Group 1076" transform="translate(0)">
          <line id="Line_16" data-name="Line 16" y2="5.057" fill="none" stroke="#17263f" stroke-linecap="round" stroke-linejoin="round" stroke-width="2"/>
          <line id="Line_17" data-name="Line 17" y2="5.057" transform="translate(6.695)" fill="none" stroke="#17263f" stroke-linecap="round" stroke-linejoin="round" stroke-width="2"/>
          <line id="Line_18" data-name="Line 18" y2="5.057" transform="translate(13.39)" fill="none" stroke="#17263f" stroke-linecap="round" stroke-linejoin="round" stroke-width="2"/>
          <line id="Line_19" data-name="Line 19" y2="5.057" transform="translate(20.085)" fill="none" stroke="#17263f" stroke-linecap="round" stroke-linejoin="round" stroke-width="2"/>
        </g>
        <g id="Group_1077" data-name="Group 1077" transform="translate(0 49.944)">
          <line id="Line_20" data-name="Line 20" y2="5.056" fill="none" stroke="#17263f" stroke-linecap="round" stroke-linejoin="round" stroke-width="2"/>
          <line id="Line_21" data-name="Line 21" y2="5.056" transform="translate(6.695)" fill="none" stroke="#17263f" stroke-linecap="round" stroke-linejoin="round" stroke-width="2"/>
          <line id="Line_22" data-name="Line 22" y2="5.056" transform="translate(13.39)" fill="none" stroke="#17263f" stroke-linecap="round" stroke-linejoin="round" stroke-width="2"/>
          <line id="Line_23" data-name="Line 23" y2="5.056" transform="translate(20.085)" fill="none" stroke="#17263f" stroke-linecap="round" stroke-linejoin="round" stroke-width="2"/>
        </g>
      </g>
    </g>
    <circle id="Ellipse_81" data-name="Ellipse 81" cx="45" cy="45" r="45" transform="translate(1224 2930)" fill="#e0ecff"/>
    <g id="Group_1095" data-name="Group 1095" transform="translate(1613 2716)">
      <path id="Path_3240" data-name="Path 3240" d="M545.773,222.463a23.575,23.575,0,0,0,0-5.925l4.678-5.395a1.073,1.073,0,0,0,.119-1.241l-4.794-8.3a1.073,1.073,0,0,0-1.134-.518l-7.011,1.354a23.583,23.583,0,0,0-5.13-2.962l-2.333-6.749a1.074,1.074,0,0,0-1.015-.723h-9.589a1.075,1.075,0,0,0-1.016.723l-2.333,6.748a23.588,23.588,0,0,0-5.13,2.963l-7.012-1.354a1.073,1.073,0,0,0-1.134.518l-4.794,8.3a1.073,1.073,0,0,0,.119,1.241l4.677,5.395a23.6,23.6,0,0,0,0,5.925l-4.678,5.395a1.074,1.074,0,0,0-.119,1.241l4.794,8.3a1.072,1.072,0,0,0,1.134.518l7.012-1.354a23.553,23.553,0,0,0,5.13,2.962l2.333,6.749a1.075,1.075,0,0,0,1.016.723h9.589a1.074,1.074,0,0,0,1.015-.723l2.333-6.749a23.6,23.6,0,0,0,5.131-2.962l7.011,1.354a1.074,1.074,0,0,0,1.134-.518l4.794-8.3a1.075,1.075,0,0,0-.119-1.241Zm-1.475,13.2-6.742-1.3a1.073,1.073,0,0,0-.879.219,19.334,19.334,0,0,1-2.585,1.762l-.013.007a19.341,19.341,0,0,1-2.819,1.359,1.075,1.075,0,0,0-.629.651l-2.244,6.49h-8.058l-2.244-6.49a1.076,1.076,0,0,0-.629-.652,19.324,19.324,0,0,1-2.819-1.359l-.013-.007a19.287,19.287,0,0,1-2.585-1.762,1.073,1.073,0,0,0-.879-.219l-6.742,1.3-4.029-6.978,4.5-5.188a1.073,1.073,0,0,0,.25-.871,19.3,19.3,0,0,1-.233-3.12v-.015a19.323,19.323,0,0,1,.233-3.121,1.073,1.073,0,0,0-.25-.871l-4.5-5.188,4.029-6.978,6.742,1.3a1.073,1.073,0,0,0,.879-.219,19.29,19.29,0,0,1,2.585-1.762l.014-.007a19.255,19.255,0,0,1,2.819-1.359,1.077,1.077,0,0,0,.629-.652l2.244-6.49h8.058l2.244,6.49a1.076,1.076,0,0,0,.629.652,19.336,19.336,0,0,1,2.819,1.358l.013.007a19.367,19.367,0,0,1,2.587,1.762,1.073,1.073,0,0,0,.878.219l6.742-1.3,4.029,6.978-4.5,5.188a1.074,1.074,0,0,0-.25.871,19.388,19.388,0,0,1,.233,3.122v.015a19.356,19.356,0,0,1-.233,3.12,1.074,1.074,0,0,0,.25.871l4.5,5.188Zm0,0" transform="translate(-498 -192)" fill="#16263e"/>
      <path id="Path_3241" data-name="Path 3241" d="M630.676,289.72h-8.2V279.67a1.081,1.081,0,0,0-2.019-.512l-9.385,17.312a1.085,1.085,0,0,0,.944,1.586h8.311v9.688a1.081,1.081,0,0,0,2.017.515l9.271-16.949a1.084,1.084,0,0,0-.942-1.589Zm-8.2,13.821v-6.56a1.075,1.075,0,0,0-1.074-1.074h-7.581l6.507-12v6.89a1.074,1.074,0,0,0,1.074,1.074h7.459Zm0,0" transform="translate(-594.771 -266.207)" fill="#f01930"/>
      <path id="Path_3242" data-name="Path 3242" d="M740.635,298.82h.754a1.074,1.074,0,0,0,0-2.148h-3.546a1.074,1.074,0,0,0-1.074,1.074v3.41a1.074,1.074,0,1,0,2.148,0v-.962a11.494,11.494,0,0,1,1.77,16.424,1.074,1.074,0,0,0,.137,1.513,1.085,1.085,0,0,0,1.513-.137,13.643,13.643,0,0,0-1.7-19.174Zm0,0" transform="translate(-702.57 -281.68)" fill="#f01930"/>
      <path id="Path_3243" data-name="Path 3243" d="M575.163,320.433a1.074,1.074,0,0,0-1.074,1.074v.862a11.494,11.494,0,0,1,1.5-18.678,1.074,1.074,0,0,0-1.1-1.844,13.64,13.64,0,0,0-1.982,22h-.891a1.074,1.074,0,0,0,0,2.148h3.546a1.074,1.074,0,0,0,1.074-1.074v-3.409a1.074,1.074,0,0,0-1.074-1.074Zm0,0" transform="translate(-557.833 -285.983)" fill="#f01930"/>
      <path id="Path_3244" data-name="Path 3244" d="M739.071,454.918a1.074,1.074,0,1,0-.441,1.332,1.083,1.083,0,0,0,.441-1.332Zm0,0" transform="translate(-702.772 -416.706)" fill="#f01930"/>
    </g>
    <g id="Group_1138" data-name="Group 1138" transform="translate(825.64 2392.603)">
      <path id="Path_3251" data-name="Path 3251" d="M636.42,317.477a19.947,19.947,0,1,1-19.946-19.946,19.946,19.946,0,0,1,19.946,19.946Zm0,0" transform="translate(188.833 269.866)" fill="none" stroke="#17263f" stroke-width="2.5"/>
      <path id="Path_3245" data-name="Path 3245" d="M636.42,317.477a19.947,19.947,0,1,1-19.946-19.946,19.946,19.946,0,0,1,19.946,19.946Zm0,0" transform="translate(203.94 284.974)" fill="none" stroke="#f01930" stroke-width="2.5"/>
    </g>
    <g id="Group_1113" data-name="Group 1113" transform="translate(88 2468)">
      <path id="Path_3256" data-name="Path 3256" d="M905.534,290.64a3.629,3.629,0,0,0-.516-1.861l7.555-10.64a1.281,1.281,0,0,0-2.087-1.484l-7.47,10.52a3.526,3.526,0,0,0-1.14-.192,3.656,3.656,0,1,0,3.659,3.656Zm-2.562,0a1.1,1.1,0,1,1-1.1-1.1A1.1,1.1,0,0,1,902.971,290.64Z" transform="translate(253.41 5.512)" fill="#f01930"/>
      <g id="Ellipse_80" data-name="Ellipse 80" transform="translate(1132 270.984)" fill="none" stroke="#17263f" stroke-width="2">
        <circle cx="23.508" cy="23.508" r="23.508" stroke="none"/>
        <circle cx="23.508" cy="23.508" r="22.508" fill="none"/>
      </g>
      <g id="Rectangle_2613" data-name="Rectangle 2613" transform="translate(1147.194 263)" fill="none" stroke="#17263f" stroke-width="2">
        <rect width="17.742" height="6.21" rx="3.105" stroke="none"/>
        <rect x="1" y="1" width="15.742" height="4.21" rx="2.105" fill="none"/>
      </g>
      <line id="Line_24" data-name="Line 24" y2="3.548" transform="translate(1155.508 272.315)" fill="none" stroke="#17263f" stroke-linecap="round" stroke-width="2"/>
      <line id="Line_25" data-name="Line 25" y2="3.548" transform="translate(1136.879 294.492) rotate(90)" fill="none" stroke="#17263f" stroke-linecap="round" stroke-width="2"/>
      <line id="Line_26" data-name="Line 26" y2="3.548" transform="translate(1177.685 294.492) rotate(90)" fill="none" stroke="#17263f" stroke-linecap="round" stroke-width="2"/>
      <line id="Line_27" data-name="Line 27" y2="3.548" transform="translate(1155.508 313.121)" fill="none" stroke="#17263f" stroke-linecap="round" stroke-width="2"/>
    </g>
    <path id="Path_3257" data-name="Path 3257" d="M3418.395,4654.4s-59.8-75.84,0-147.723" transform="translate(-1978 -1823)" fill="none" stroke="#17263f" stroke-width="2" stroke-dasharray="4 4" opacity="0.5"/>
    <g id="Group_1103" data-name="Group 1103" transform="translate(1329 2769)">
      <path id="Path_1824" data-name="Path 1824" d="M1080.1,209.013a29.833,29.833,0,0,0-8.732-4.559,25.43,25.43,0,0,0,.9-24.655,29.01,29.01,0,0,0-20.149-14.836,32.889,32.889,0,0,0-21.007,3.19,27.536,27.536,0,0,0-2.537-19.068,34.782,34.782,0,0,0-16.373-15.032,53.2,53.2,0,0,0-45.381,1.922,34.922,34.922,0,0,0-15.731,18.3,16.8,16.8,0,0,0-3.342.368,19,19,0,0,0-7.654-10.541,29.923,29.923,0,0,0-13.226-4.768,38.048,38.048,0,0,0-21.907,3.308,29.352,29.352,0,0,0-14.786,16.463,24.3,24.3,0,0,0,2.411,20.873,26.15,26.15,0,0,0-21.41,4.17A25.469,25.469,0,0,0,860.8,204.991a24.548,24.548,0,0,0,11.64,20.111,22.562,22.562,0,0,0,2.182,1.129A24.857,24.857,0,0,0,893.943,265.1c.308.015.619.023.937.023,4.12,0,8.954-1.309,11.763-4.909a21.989,21.989,0,0,0,9.77,16.919,25.79,25.79,0,0,0,14.284,4.15,28.112,28.112,0,0,0,6.944-.871,23.814,23.814,0,0,0,11.846-6.8,18.34,18.34,0,0,0,3.761-6.345,27.516,27.516,0,0,0,9.714,13.917,24.376,24.376,0,0,0,14.4,4.78,22.061,22.061,0,0,0,6.232-.9,1.131,1.131,0,0,0,.478.359,52.434,52.434,0,0,1,29.507,27.7l.233.537c.833,1.923,1.777,4.1,3.622,5.532a7.3,7.3,0,0,0,4.477,1.472,7.854,7.854,0,0,0,4.873-1.671c1.913-1.521,3.2-3.941,3.94-7.395.168-.784.3-1.577.442-2.37a29.234,29.234,0,0,1,.985-4.329,28.608,28.608,0,0,0,12.606,2.754c.394,0,.775-.007,1.142-.019a27.672,27.672,0,0,0,14.209-4.142,22.271,22.271,0,0,0,6.973-30.067,1.123,1.123,0,0,0-.174-.193c.282-.159.561-.328.832-.509a15.045,15.045,0,0,0,6.195-14.78c-.041-.247-.094-.491-.147-.736a1.148,1.148,0,0,0,.381.069,1.225,1.225,0,0,0,.176-.013,19.817,19.817,0,0,0,12.026-7.055,25.606,25.606,0,0,0,5.413-12.772A30.767,30.767,0,0,0,1080.1,209.013Zm-51.2,99.808c-.131.763-.264,1.526-.425,2.281-.622,2.91-1.642,4.9-3.119,6.07a5.46,5.46,0,0,1-6.5.18c-1.376-1.065-2.125-2.794-2.917-4.623l-.238-.546a54.845,54.845,0,0,0-29.112-28.259,20.979,20.979,0,0,0,10.14-10.347,19.938,19.938,0,0,0,3.15,6.477,24.308,24.308,0,0,0,19.032,9.307c.685,0,1.358-.04,2.025-.1a1.07,1.07,0,0,0-.013.111,19.031,19.031,0,0,0,8.831,14.151c.118.077.238.147.357.221A29.039,29.039,0,0,0,1028.894,308.821Z" transform="translate(-860.797 -129.878)" fill="#e0ecff"/>
      <path id="Path_1825" data-name="Path 1825" d="M1080.1,209.012a29.832,29.832,0,0,0-8.731-4.558,25.432,25.432,0,0,0,.9-24.656,29.012,29.012,0,0,0-20.149-14.835,32.883,32.883,0,0,0-21.007,3.19,27.538,27.538,0,0,0-2.537-19.069,34.785,34.785,0,0,0-16.373-15.032,53.2,53.2,0,0,0-45.38,1.922,34.93,34.93,0,0,0-15.731,18.3,16.865,16.865,0,0,0-3.343.367,19,19,0,0,0-7.654-10.54,29.922,29.922,0,0,0-13.227-4.768,38.047,38.047,0,0,0-21.906,3.308,29.349,29.349,0,0,0-14.786,16.463,24.3,24.3,0,0,0,2.412,20.873,26.151,26.151,0,0,0-21.41,4.17A25.472,25.472,0,0,0,860.8,204.991,24.55,24.55,0,0,0,872.445,225.1a22.085,22.085,0,0,0,2.181,1.129A24.857,24.857,0,0,0,893.943,265.1q.461.023.936.023c4.12,0,8.954-1.31,11.763-4.909a21.988,21.988,0,0,0,9.77,16.919,25.791,25.791,0,0,0,14.284,4.15,28.157,28.157,0,0,0,6.944-.87,23.824,23.824,0,0,0,11.847-6.8,18.342,18.342,0,0,0,3.762-6.345,27.506,27.506,0,0,0,9.713,13.917,24.376,24.376,0,0,0,14.4,4.78,22.061,22.061,0,0,0,6.232-.9,1.131,1.131,0,0,0,.478.359,52.44,52.44,0,0,1,29.507,27.7l.233.537c.833,1.923,1.777,4.1,3.622,5.532a7.3,7.3,0,0,0,4.477,1.473,7.855,7.855,0,0,0,4.873-1.672c1.913-1.521,3.2-3.941,3.94-7.395.168-.784.305-1.577.442-2.371a29.4,29.4,0,0,1,.984-4.328,28.614,28.614,0,0,0,12.606,2.754c.395,0,.776-.007,1.143-.019a27.672,27.672,0,0,0,14.21-4.142,22.272,22.272,0,0,0,6.972-30.067,1.085,1.085,0,0,0-.174-.193c.282-.159.561-.328.831-.509a15.043,15.043,0,0,0,6.2-14.78c-.041-.247-.094-.491-.147-.736a1.148,1.148,0,0,0,.381.069,1.114,1.114,0,0,0,.176-.013,19.822,19.822,0,0,0,12.026-7.054,25.616,25.616,0,0,0,5.413-12.773A30.772,30.772,0,0,0,1080.1,209.012Zm-51.2,99.808c-.132.764-.264,1.527-.425,2.283-.622,2.909-1.642,4.894-3.119,6.069a5.46,5.46,0,0,1-6.5.18c-1.376-1.065-2.125-2.794-2.916-4.623l-.238-.546a54.85,54.85,0,0,0-29.113-28.259,20.979,20.979,0,0,0,10.14-10.347,19.926,19.926,0,0,0,3.15,6.477,24.308,24.308,0,0,0,19.033,9.307c.684,0,1.357-.04,2.025-.1a1.038,1.038,0,0,0-.013.111,19.029,19.029,0,0,0,8.831,14.151c.118.077.238.147.357.221A29.029,29.029,0,0,0,1028.894,308.82ZM1089.5,237.1a23.311,23.311,0,0,1-4.907,11.626,17.48,17.48,0,0,1-10.594,6.24,1.142,1.142,0,0,0-.714.419,17.313,17.313,0,0,0-9.336-10.057c-.022-.009-.045-.007-.066-.014a15.147,15.147,0,0,0-.718-13.91,1.155,1.155,0,0,0-1.969,1.207,12.342,12.342,0,0,1-14.536,18.121,1.155,1.155,0,0,0-.751,2.185,13.967,13.967,0,0,0,4.54.742,15.11,15.11,0,0,0,11.653-5.431c.245-.3.473-.621.69-.946a1.15,1.15,0,0,0,.222.157,14.957,14.957,0,0,1,8.645,10.863,12.872,12.872,0,0,1-5.2,12.486,11.229,11.229,0,0,1-13.137-.565,1.155,1.155,0,0,0-1.5,1.759,12.991,12.991,0,0,0,8.406,2.947,13.941,13.941,0,0,0,4.725-.822,1.127,1.127,0,0,0,.15.485,19.963,19.963,0,0,1-6.25,26.949,25.372,25.372,0,0,1-13.025,3.768c-3.959.132-9.738-.406-14.811-3.725a16.944,16.944,0,0,1-7.792-12.394,1.069,1.069,0,0,0-.074-.264,17.513,17.513,0,0,0,8.158-3.876c4.9-4.3,6.287-11.886,3.082-16.9a1.155,1.155,0,0,0-1.947,1.244c2.616,4.1,1.424,10.341-2.659,13.923-3.685,3.234-9.329,4.47-15.1,3.305a21.44,21.44,0,0,1-12.953-7.944,17.039,17.039,0,0,1-2.863-14.515,1.155,1.155,0,1,0-2.219-.641,17.1,17.1,0,0,0-.639,3.981,1,1,0,0,0-.058.184c-.671,6.527-5.679,12.656-12.176,14.906a21.419,21.419,0,0,1-19.44-3.27A26.179,26.179,0,0,1,954.4,261.8a1.127,1.127,0,0,0-.271-.576c-.009-.184,0-.372-.018-.555a1.155,1.155,0,1,0-2.3.209,15.013,15.013,0,0,1-4.033,11.171,21.512,21.512,0,0,1-10.709,6.119,24.431,24.431,0,0,1-19.373-2.961,19.534,19.534,0,0,1-8.771-15.935,16.936,16.936,0,0,0,3.709.42h.065a23.474,23.474,0,0,0,12.263-3.913,1.155,1.155,0,0,0-1.232-1.954,21.158,21.158,0,0,1-11.04,3.557,13.153,13.153,0,0,1-10.116-4.359,9.478,9.478,0,0,1-1.278-10.278,1.155,1.155,0,0,0-2.019-1.124A11.7,11.7,0,0,0,900.8,254.5a13.833,13.833,0,0,0,4.559,3.509c-2.308,3.807-7.326,4.973-11.3,4.779a22.557,22.557,0,0,1-17.237-35.68,23.685,23.685,0,0,0,7.559,1.237,22.822,22.822,0,0,0,11.259-2.917,1.155,1.155,0,0,0-1.142-2.008,21.044,21.044,0,0,1-20.867-.3,22.188,22.188,0,0,1-10.514-18.183,23.121,23.121,0,0,1,9.421-18.919,23.758,23.758,0,0,1,21.1-3.339,1.146,1.146,0,0,0,1.357-1.663,1.141,1.141,0,0,0,.1-1.454,21.82,21.82,0,0,1-2.734-19.71,27.022,27.022,0,0,1,13.631-15.139,35.716,35.716,0,0,1,20.565-3.086A27.667,27.667,0,0,1,938.77,146a16.657,16.657,0,0,1,6.75,9.274,16.041,16.041,0,0,0-3.572,1.821,16.608,16.608,0,0,0-7.16,13.476,1.154,1.154,0,0,0,1.149,1.16h.005a1.155,1.155,0,0,0,1.155-1.149,14.083,14.083,0,0,1,27.787-3.189,1.155,1.155,0,0,0,2.248-.532,16.615,16.615,0,0,0-10.026-11.5,16,16,0,0,0-3.617-.925,32.76,32.76,0,0,1,14.475-16.453,50.907,50.907,0,0,1,43.266-1.828,32.469,32.469,0,0,1,15.3,14.009,24.8,24.8,0,0,1,1.673,19.66c-.206.132-.413.257-.616.392a18.417,18.417,0,0,0-20.867,3.169,1.155,1.155,0,1,0,1.619,1.646,15.707,15.707,0,0,1,26.456,14.069,1.154,1.154,0,0,0,.925,1.346,1.086,1.086,0,0,0,.212.021,1.156,1.156,0,0,0,1.134-.945,18.473,18.473,0,0,0-7.209-17.9,1.142,1.142,0,0,0,.2-.243,30.828,30.828,0,0,1,21.624-4.145,26.662,26.662,0,0,1,18.524,13.613,23.066,23.066,0,0,1-.906,22.577,1.128,1.128,0,0,0-.154.393,30.641,30.641,0,0,0-19.549,1.559,1.155,1.155,0,1,0,.925,2.116A28.031,28.031,0,0,1,1089.5,237.1Z" transform="translate(-860.797 -129.878)" fill="#17263f"/>
      <path id="Path_1826" data-name="Path 1826" d="M953.162,200.126a13.387,13.387,0,0,1,2.195,13.76,1.155,1.155,0,0,0,.6,1.518,1.142,1.142,0,0,0,.458.1,1.155,1.155,0,0,0,1.061-.7,15.3,15.3,0,1,0-29.161-8.39,1.155,1.155,0,1,0,2.283.35,12.987,12.987,0,0,1,22.562-6.637Z" transform="translate(-864.388 -133.26)" fill="#17263f"/>
      <path id="Path_1827" data-name="Path 1827" d="M1027.957,222.442a1.155,1.155,0,1,0,.273,2.293,18.82,18.82,0,0,1,17.013,7.319,17.537,17.537,0,0,1,1.326,18.3,16.606,16.606,0,0,1-16.042,8.519,1.155,1.155,0,1,0-.255,2.3,17,17,0,0,0,1.873.1,19.074,19.074,0,0,0,16.456-9.82,19.89,19.89,0,0,0-1.489-20.752A20.905,20.905,0,0,0,1027.957,222.442Z" transform="translate(-869.635 -134.794)" fill="#17263f"/>
      <g id="Group_486" data-name="Group 486" transform="translate(77.444 74.03)">
        <path id="Path_1828" data-name="Path 1828" d="M1022.573,243.749a1.156,1.156,0,0,0-1.633.009,16.173,16.173,0,0,1-26.62-17.1,17.8,17.8,0,0,0,7.756,1.8,16.974,16.974,0,0,0,4.187-.52c4.847-1.233,9.892-5.56,9.7-11.151a1.155,1.155,0,0,0-2.309.081c.154,4.382-3.983,7.821-7.956,8.831a15.047,15.047,0,0,1-18.653-16.339,1.155,1.155,0,0,0-2.294-.269,17.587,17.587,0,0,0,5.8,15.082,16.64,16.64,0,0,0,1.745,1.315,18.929,18.929,0,0,0-.123,13.426l1.18,2.54a18.826,18.826,0,0,0,13.48,9.223,17.7,17.7,0,0,0,2.5.177,18.881,18.881,0,0,0,13.249-5.466A1.157,1.157,0,0,0,1022.573,243.749Z" transform="translate(-944.828 -208.066)" fill="#17263f"/>
        <path id="Path_1829" data-name="Path 1829" d="M967.719,248.536a1.147,1.147,0,0,0-1.774-.854,15.406,15.406,0,0,1-17.864-.437c-1.324-.99-2.951-2.6-3.186-4.645a1.156,1.156,0,0,0-2.3.264c.33,2.862,2.411,4.967,4.1,6.23a17.577,17.577,0,0,0,2.252,1.433,17.714,17.714,0,0,0,18.277-.924,1.152,1.152,0,0,0,.492-1.068Z" transform="translate(-942.592 -209.849)" fill="#17263f"/>
      </g>
      <path id="Path_1830" data-name="Path 1830" d="M975.684,189.6a1.155,1.155,0,0,0,1.6-.329,16.343,16.343,0,0,1,29.658,12.263,1.155,1.155,0,0,0,2.264.462,18.653,18.653,0,0,0-33.85-14A1.155,1.155,0,0,0,975.684,189.6Z" transform="translate(-866.881 -132.528)" fill="#17263f"/>
    </g>
    <g id="Group_1093" data-name="Group 1093" transform="translate(1247 2948)">
      <path id="Path_3234" data-name="Path 3234" d="M465.451,682.011a1.008,1.008,0,0,0,1.009,1.009h11.1a1.009,1.009,0,0,0,0-2.018h-11.1A1.009,1.009,0,0,0,465.451,682.011Z" transform="translate(-451.322 -632.562)" fill="#16263e"/>
      <path id="Path_3235" data-name="Path 3235" d="M474.826,685.951a1.01,1.01,0,0,0,0-2.019h-7.064a1.01,1.01,0,0,0,0,2.019Z" transform="translate(-450.606 -630.951)" fill="#16263e"/>
      <path id="Path_3236" data-name="Path 3236" d="M471.145,649.746l-.139,0a1.008,1.008,0,0,0-1,1.009V684.8a1.009,1.009,0,1,0,2.018,0V651.782a18.682,18.682,0,0,1,5.759,36.271,1.011,1.011,0,0,0-.663.948v5.147h-5.1v-5.587a1.009,1.009,0,1,0-2.018,0v6.6a1.009,1.009,0,0,0,1.009,1.009h6.16a1.958,1.958,0,0,0,1.962-1.95V689.7a20.706,20.706,0,0,0-7.96-39.95Z" transform="translate(-448.816 -649.746)" fill="#16263e"/>
      <path id="Path_3237" data-name="Path 3237" d="M459.164,661.36a4.841,4.841,0,0,0-.589,8.257,4.263,4.263,0,0,0-.724,7.014,4.031,4.031,0,0,0-.425,1.792,4.13,4.13,0,0,0,3.878,4.084,4.281,4.281,0,0,0,4.319,4.208c.064,0,.124-.006.186-.008a4.884,4.884,0,0,0,2.635,2.956v4.507a2.034,2.034,0,0,0,2.061,2H474.5a1.01,1.01,0,0,0,0-2.019h-3.994c-.023,0-.039,0-.042,0v-4.036l.053,0a4.884,4.884,0,0,0,4.927-4.837l.065-31.653a3.913,3.913,0,0,0-3.949-3.878,3.953,3.953,0,0,0-3.318,1.793c-.06,0-.118.008-.17.016a1.091,1.091,0,0,0-.194.045,4.726,4.726,0,0,0-4.642,3.724c-.113-.009-.228-.018-.344-.018a3.743,3.743,0,0,0-3.775,3.707,3.641,3.641,0,0,0,.578,1.959A1,1,0,0,0,459.164,661.36Zm1.3,1.621.6-.223c.139-.013.279-.03.42-.03a3.746,3.746,0,0,1,3.885,3.578,1.009,1.009,0,1,0,2.018,0,5.728,5.728,0,0,0-5.418-5.573l-.544-.789a1.653,1.653,0,0,1-.291-.933,1.726,1.726,0,0,1,1.757-1.688c.063,0,.126.006.186.011l.3.023a1,1,0,0,0,.17.316,4.994,4.994,0,0,0,3.905,1.816,1.01,1.01,0,0,0,0-2.019,2.983,2.983,0,0,1-2.339-1.069c-.012-.014-.025-.025-.037-.037l.132-.632a2.71,2.71,0,0,1,2.669-2.115l.093.006.1.006.99.053a2.317,2.317,0,0,1,1.06.835,1.01,1.01,0,1,0,1.629-1.193,4.449,4.449,0,0,0-1.319-1.21,1.963,1.963,0,0,1,1.12-.349,1.9,1.9,0,0,1,1.931,1.853l-.065,31.657a2.867,2.867,0,0,1-2.909,2.817,2.933,2.933,0,0,1-2.658-1.691,5.015,5.015,0,0,0,3.132-5.249,1.008,1.008,0,1,0-2.008.184,2.883,2.883,0,0,1-2.356,3.29,1.111,1.111,0,0,0-.163.031l-.735.029-.088,0h-.017a2.269,2.269,0,0,1-2.3-2.205l-.012-1.441a.931.931,0,0,0,.042-.175,1.128,1.128,0,0,1,.95-.97.918.918,0,0,1,.8.3,1.01,1.01,0,1,0,1.5-1.353,2.95,2.95,0,0,0-2.549-.95,3.13,3.13,0,0,0-2.678,2.582,2.108,2.108,0,0,1-1.931-2.058,1.992,1.992,0,0,1,.214-.894l.7-1.412-1.2-1.021a2.26,2.26,0,0,1-.807-1.72,2.289,2.289,0,0,1,1.2-1.993l.642-.357a2.665,2.665,0,0,1,1.619,1.232,2.693,2.693,0,0,1,.358,1.342,1.01,1.01,0,0,0,2.019,0,4.715,4.715,0,0,0-.631-2.353,4.648,4.648,0,0,0-1.248-1.395l.022-.011-2.579-1.861a2.834,2.834,0,0,1-1.206-2.311A2.9,2.9,0,0,1,460.466,662.981Z" transform="translate(-456.334 -649.746)" fill="#f01930"/>
    </g>
    <circle id="Ellipse_86" data-name="Ellipse 86" cx="45" cy="45" r="45" transform="translate(1403 2603)" fill="#e0ecff"/>
    <g id="Group_1139" data-name="Group 1139" transform="translate(632.912 2481.627)">
      <path id="Path_3226" data-name="Path 3226" d="M688.1,279.143a5.169,5.169,0,1,0-5.169-5.169A5.175,5.175,0,0,0,688.1,279.143Zm-2.7-5.169a2.7,2.7,0,1,1,2.7,2.7A2.7,2.7,0,0,1,685.4,273.973Z" transform="translate(115.902 -129.432)" fill="#f01930"/>
      <path id="Path_3227" data-name="Path 3227" d="M698.079,279.143a5.169,5.169,0,1,0-5.169-5.169A5.175,5.175,0,0,0,698.079,279.143Zm-2.7-5.169a2.7,2.7,0,1,1,2.7,2.7A2.7,2.7,0,0,1,695.379,273.973Z" transform="translate(127.414 -129.432)" fill="#f01930"/>
      <path id="Path_3255" data-name="Path 3255" d="M706.236,322.571l-2.775,5.776a1.492,1.492,0,0,1-1.283.791,1.459,1.459,0,0,1-1.373-.633,1.487,1.487,0,0,1-.093-1.459l4.524-9.7c.5-.749,5.025-7.321,10.212-7.321,2.944,0,6.338,2.049,8.443,5.1,2.5,3.622,2.906,8.183,1.139,12.848-4.632,12.253-18.244,21.218-21.281,23.1-3.037-1.88-16.649-10.847-21.281-23.1-1.767-4.665-1.361-9.227,1.137-12.848,2.107-3.047,5.5-5.1,8.445-5.1,4.428,0,8.455,4.919,9.718,6.626l1.981,2.649" transform="translate(111.704 -156.695)" fill="none" stroke="#16263e" stroke-miterlimit="10" stroke-width="2"/>
    </g>
  </g>
</svg>
