<svg xmlns="http://www.w3.org/2000/svg" xmlns:xlink="http://www.w3.org/1999/xlink" width="638.683" height="578.464" viewBox="0 0 638.683 578.464"><defs><clipPath id="clip-path"><rect id="Rectangle_2384" width="80" height="80" fill="#17263f" data-name="Rectangle 2384"/></clipPath></defs><g id="Group_1205" data-name="Group 1205" transform="translate(-129.629 -1843.536)"><g id="Ellipse_19" fill="none" stroke="#16263e" stroke-dasharray="4 7" stroke-width="1.5" data-name="Ellipse 19" transform="translate(226 1931)"><circle cx="245.5" cy="245.5" r="245.5" stroke="none"/><circle cx="245.5" cy="245.5" r="244.75" fill="none"/></g><path id="Path_3263" fill="#e0ecff" d="M206,0C319.771,0,412,92.453,412,206.5S319.771,413,206,413,0,320.547,0,206.5,92.229,0,206,0Z" data-name="Path 3263" transform="translate(266 1970)"/><g id="Ellipse_15" fill="#fff" stroke="#17263f" stroke-width="2" data-name="Ellipse 15" transform="translate(392 1878)"><circle cx="80" cy="80" r="80" stroke="none"/><circle cx="80" cy="80" r="79" fill="none"/></g><g id="Group_272" data-name="Group 272" transform="translate(440 1918)"><g id="Group_271" data-name="Group 271"><path id="Path_181" fill="#f01930" d="M248.963,9a1.5,1.5,0,0,1-1.5-1.5v-6a1.5,1.5,0,0,1,3,0v6A1.5,1.5,0,0,1,248.963,9Z" data-name="Path 181" transform="translate(-216.963)"/><path id="Path_182" fill="#f01930" d="M153.8,34.457a1.5,1.5,0,0,1-1.3-.75l-3-5.195A1.5,1.5,0,0,1,152.088,27a.066.066,0,0,0,.01.017l3,5.194a1.5,1.5,0,0,1-.549,2.049A1.484,1.484,0,0,1,153.8,34.457Z" data-name="Path 182" transform="translate(-134.142 -21.64)"/><path id="Path_183" fill="#f01930" d="M84.143,104.1a1.5,1.5,0,0,1-.75-.2l-5.194-3a1.5,1.5,0,0,1,1.483-2.609.067.067,0,0,1,.017.011l5.194,3a1.5,1.5,0,0,1-.75,2.8Z" data-name="Path 183" transform="translate(-72.827 -80.855)"/><path id="Path_184" fill="#f01930" d="M58.7,199.263h-6a1.5,1.5,0,0,1,0-3h6a1.5,1.5,0,0,1,0,3Z" data-name="Path 184" transform="translate(-51.199 -161.763)"/><path id="Path_185" fill="#f01930" d="M79.007,283.3a1.5,1.5,0,0,1-.75-2.8l5.194-3a1.5,1.5,0,0,1,1.516,2.588.1.1,0,0,0-.018.011l-5.195,3A1.484,1.484,0,0,1,79.007,283.3Z" data-name="Path 185" transform="translate(-72.883 -228.555)"/><path id="Path_186" fill="#f01930" d="M394.521,283.3a1.493,1.493,0,0,1-.75-.2l-5.195-3a1.5,1.5,0,0,1,1.484-2.609l.018.011,5.194,3a1.5,1.5,0,0,1-.751,2.8Z" data-name="Path 186" transform="translate(-336.646 -228.552)"/><path id="Path_187" fill="#f01930" d="M417.093,199.263h-6a1.5,1.5,0,0,1,0-3h6a1.5,1.5,0,0,1,0,3Z" data-name="Path 187" transform="translate(-354.594 -161.763)"/><path id="Path_188" fill="#f01930" d="M389.385,104.109a1.5,1.5,0,0,1-.75-2.8l5.195-3a1.5,1.5,0,0,1,1.516,2.588.061.061,0,0,0-.016.011l-5.194,3A1.494,1.494,0,0,1,389.385,104.109Z" data-name="Path 188" transform="translate(-336.701 -80.859)"/><path id="Path_189" fill="#f01930" d="M330.035,34.452a1.5,1.5,0,0,1-1.3-2.25l3-5.194a1.5,1.5,0,0,1,2.608,1.483.131.131,0,0,1-.01.018l-3,5.194A1.5,1.5,0,0,1,330.035,34.452Z" data-name="Path 189" transform="translate(-285.695 -21.635)"/><path id="Path_190" fill="#f01930" d="M200.2,170.664a6,6,0,0,0-6,6v3h-3v-3a6,6,0,1,0-6,6h3v16.5a1.5,1.5,0,1,0,3,0v-16.5h3v16.5a1.5,1.5,0,1,0,3,0v-16.5h3a6,6,0,0,0,0-12Zm-18,6a3,3,0,1,1,6,0v3h-3A3,3,0,0,1,182.2,176.664Zm18,3h-3v-3a3,3,0,1,1,3,3Z" data-name="Path 190" transform="translate(-160.697 -140.664)"/></g><path id="Path_191" fill="#17263f" d="M140.5,68.292c-11.032-.554-20.4,8.352-20.935,19.9a21.353,21.353,0,0,0,7.287,17.176,3.962,3.962,0,0,1,1.427,2.991v3.067a3.915,3.915,0,0,0,2.5,3.682v1.548a4.007,4.007,0,0,0,.975,2.615,4,4,0,0,0,0,5.231,4.034,4.034,0,0,0,.243,5.518,3.646,3.646,0,0,0,2.532,1.02,1.244,1.244,0,0,0,1.25-1.241,1.324,1.324,0,0,0-.222-.769,1.444,1.444,0,0,0-.14-.226,1.28,1.28,0,0,0-.348-.238,1.166,1.166,0,0,0-.11-.051,1.269,1.269,0,0,0-.394-.082c-.012,0-.024-.008-.036-.008a1.309,1.309,0,0,1,0-2.615h5a1.309,1.309,0,0,0,0-2.615h-5a1.309,1.309,0,0,1,0-2.615h5a1.309,1.309,0,0,0,0-2.615h-5a1.28,1.28,0,0,1-1.25-1.308v-1.308h6.25a1.309,1.309,0,0,0,0-2.615h-7.5a1.28,1.28,0,0,1-1.25-1.308v-3.067a6.611,6.611,0,0,0-2.343-5.015,18.893,18.893,0,0,1-2.409-25.768,17.172,17.172,0,0,1,14.354-6.663c9.236.575,16.489,8.493,16.646,18.17a18.538,18.538,0,0,1-6.493,14.336,6.611,6.611,0,0,0-2.256,5.091v2.915a1.28,1.28,0,0,1-1.25,1.308h-3.75a1.309,1.309,0,0,0,0,2.615h2.5v1.308a1.28,1.28,0,0,1-1.25,1.308h-1.25a1.309,1.309,0,0,0,0,2.615h1.25a1.309,1.309,0,0,1,0,2.615h-1.25a1.309,1.309,0,0,0,0,2.615h1.25a1.309,1.309,0,0,1,0,2.615h-6.249a1.309,1.309,0,0,0,0,2.615h4.786a3.709,3.709,0,0,1-4.785,2.392,3.751,3.751,0,0,1-1.554-1.093,1.212,1.212,0,0,0-1.765-.107,1.35,1.35,0,0,0-.1,1.846h0a6.045,6.045,0,0,0,8.8.549,6.6,6.6,0,0,0,2.01-3.794,3.972,3.972,0,0,0,1.631-6.332,4,4,0,0,0,0-5.231,4.007,4.007,0,0,0,.975-2.615V115.1a3.915,3.915,0,0,0,2.5-3.682v-2.915a4.014,4.014,0,0,1,1.326-3.056,21.179,21.179,0,0,0,7.423-16.39C159.352,78,151.06,68.949,140.5,68.292Z" data-name="Path 191" transform="translate(-107.532 -56.268)"/></g><path id="Path_3292" fill="#17263f" d="M5.936.16a5.317,5.317,0,0,1-3.968-1.4A5.208,5.208,0,0,1,.592-5.056,5.6,5.6,0,0,1,1.928-9.04,5.218,5.218,0,0,1,5.92-10.464a9.345,9.345,0,0,1,1.672.136,8.536,8.536,0,0,1,1.4.376v1.888a7.572,7.572,0,0,0-2.912-.56,3.2,3.2,0,0,0-2.528.88,4,4,0,0,0-.768,2.688q0,3.392,3.328,3.392A8.172,8.172,0,0,0,7.6-1.8a7.257,7.257,0,0,0,1.408-.408V-.3a10.547,10.547,0,0,1-1.4.336A9.915,9.915,0,0,1,5.936.16Zm8.944,0Q9.872.16,9.872-5.1a5.622,5.622,0,0,1,1.264-4.1,5.079,5.079,0,0,1,3.744-1.264A5.079,5.079,0,0,1,18.624-9.2a5.622,5.622,0,0,1,1.264,4.1Q19.888.16,14.88.16Zm0-1.84a2.587,2.587,0,0,0,2.136-.84A4.067,4.067,0,0,0,17.7-5.1a4.224,4.224,0,0,0-.68-2.728,2.667,2.667,0,0,0-2.136-.792,2.667,2.667,0,0,0-2.136.792,4.224,4.224,0,0,0-.68,2.728,4.067,4.067,0,0,0,.68,2.584A2.587,2.587,0,0,0,14.88-1.68ZM21.392,0V-10.3h1.872l4.88,6.864V-10.3H30.3V0H28.432l-4.88-6.864V0ZM35.328.16A11.153,11.153,0,0,1,33.48.016,6.353,6.353,0,0,1,32-.4V-2.3a9.044,9.044,0,0,0,1.52.464,7.576,7.576,0,0,0,1.6.176,4.815,4.815,0,0,0,1.648-.208.9.9,0,0,0,.528-.944,1.123,1.123,0,0,0-.224-.736A1.887,1.887,0,0,0,36.3-4.04a15.856,15.856,0,0,0-1.56-.488,5.1,5.1,0,0,1-2.272-1.12A2.544,2.544,0,0,1,31.808-7.5,2.562,2.562,0,0,1,32.848-9.7a5.041,5.041,0,0,1,3.024-.768,10.954,10.954,0,0,1,1.728.128,7.555,7.555,0,0,1,1.3.3v1.9a7.673,7.673,0,0,0-2.736-.5,4.653,4.653,0,0,0-1.584.216A.868.868,0,0,0,34-7.5a.943.943,0,0,0,.208.64,1.774,1.774,0,0,0,.712.432A14.712,14.712,0,0,0,36.336-6a6.561,6.561,0,0,1,1.952.8,2.562,2.562,0,0,1,.952,1.056A3.226,3.226,0,0,1,39.5-2.816,2.625,2.625,0,0,1,38.48-.656,5.02,5.02,0,0,1,35.328.16ZM43.056,0V-8.64H39.888V-10.3h8.48V-8.64H45.216V0Zm4.816,0,3.936-10.3h2.368L58.1,0h-2.24L54.88-2.48H51.088L50.128,0Zm3.536-4.144H54.56L52.976-8.288ZM59.6,0V-10.3h1.872l4.88,6.864V-10.3h2.16V0H66.64L61.76-6.864V0ZM72.864,0V-8.64H69.7V-10.3h8.48V-8.64H75.024V0ZM82.88,0V-10.3h2.16V0Zm3.984,0V-10.3h1.872l4.88,6.864V-10.3h2.16V0H93.9l-4.88-6.864V0ZM97.6,0V-10.3h1.872l4.88,6.864V-10.3h2.16V0H104.64L99.76-6.864V0Zm15.424.16q-5.008,0-5.008-5.264a5.622,5.622,0,0,1,1.264-4.1,5.079,5.079,0,0,1,3.744-1.264A5.079,5.079,0,0,1,116.768-9.2a5.622,5.622,0,0,1,1.264,4.1Q118.032.16,113.024.16Zm0-1.84a2.587,2.587,0,0,0,2.136-.84,4.067,4.067,0,0,0,.68-2.584,4.225,4.225,0,0,0-.68-2.728,2.667,2.667,0,0,0-2.136-.792,2.667,2.667,0,0,0-2.136.792,4.225,4.225,0,0,0-.68,2.728,4.067,4.067,0,0,0,.68,2.584A2.587,2.587,0,0,0,113.024-1.68ZM122.512,0l-3.936-10.3h2.256l2.848,7.888,2.864-7.888H128.8L124.88,0Zm5.312,0,3.936-10.3h2.368L138.048,0h-2.24l-.976-2.48H131.04L130.08,0Zm3.536-4.144h3.152l-1.584-4.144ZM140.72,0V-8.64h-3.168V-10.3h8.48V-8.64H142.88V0Zm6.5,0V-10.3h2.16V0Zm8.672.16Q150.88.16,150.88-5.1a5.622,5.622,0,0,1,1.264-4.1,5.079,5.079,0,0,1,3.744-1.264A5.079,5.079,0,0,1,159.632-9.2,5.622,5.622,0,0,1,160.9-5.1Q160.9.16,155.888.16Zm0-1.84a2.587,2.587,0,0,0,2.136-.84A4.067,4.067,0,0,0,158.7-5.1a4.224,4.224,0,0,0-.68-2.728,2.667,2.667,0,0,0-2.136-.792,2.667,2.667,0,0,0-2.136.792,4.224,4.224,0,0,0-.68,2.728,4.067,4.067,0,0,0,.68,2.584A2.587,2.587,0,0,0,155.888-1.68ZM162.4,0V-10.3h1.872l4.88,6.864V-10.3h2.16V0H169.44l-4.88-6.864V0Z" data-name="Path 3292" transform="translate(390 1854)"/><path id="Path_3291" fill="#17263f" d="M.912,0V-10.3h2.16V0ZM4.9,0V-10.3h4.32a4.705,4.705,0,0,1,3.5,1.192A5.589,5.589,0,0,1,13.888-5.1a5.5,5.5,0,0,1-1.16,3.88A4.622,4.622,0,0,1,9.216,0Zm2.16-1.664H8.912a3.747,3.747,0,0,0,1.536-.28,1.835,1.835,0,0,0,.936-1.024A5.732,5.732,0,0,0,11.7-5.1a6.1,6.1,0,0,0-.288-2.128,1.726,1.726,0,0,0-.9-1.008,3.962,3.962,0,0,0-1.6-.272H7.056ZM15.392,0V-10.3h7.392v1.68H17.552v2.64h4.64V-4.32h-4.64v2.656h5.232V0Zm8.576,0L27.9-10.3h2.368L34.192,0h-2.24l-.976-2.48H27.184L26.224,0ZM27.5-4.144h3.152L29.072-8.288ZM36.864,0V-8.64H33.7V-10.3h8.48V-8.64H39.024V0Zm6.5,0V-10.3h7.392v1.68H45.52v2.64h4.64V-4.32H45.52v2.656h5.232V0Zm8.576,1.92.5-3.216h1.856l-.8,3.216ZM59.312,0V-10.3h2.16v8.64h5.072V0Zm8.416,0V-10.3H75.12v1.68H69.888v2.64h4.64V-4.32h-4.64v2.656H75.12V0ZM76.3,0,80.24-10.3h2.368L86.528,0h-2.24l-.976-2.48H79.52L78.56,0ZM79.84-4.144h3.152L81.408-8.288ZM88.032,0V-10.3h4.944a3.318,3.318,0,0,1,2.608.936,3.655,3.655,0,0,1,.832,2.52,3.006,3.006,0,0,1-.536,1.792,2.989,2.989,0,0,1-1.512,1.088,1.875,1.875,0,0,1,.408.448,3.993,3.993,0,0,1,.312.64L96.336,0H94.1L92.88-2.768a1.262,1.262,0,0,0-.352-.5,1.09,1.09,0,0,0-.64-.144h-1.7V0Zm2.16-5.2h2.224a2.1,2.1,0,0,0,1.328-.376,1.522,1.522,0,0,0,.48-1.272,1.686,1.686,0,0,0-.416-1.264,1.762,1.762,0,0,0-1.264-.4H90.192ZM97.92,0V-10.3h1.872l4.88,6.864V-10.3h2.16V0H104.96l-4.88-6.864V0Zm13.936,0,3.936-10.3h2.368L122.08,0h-2.24l-.976-2.48h-3.792L114.112,0Zm3.536-4.144h3.152L116.96-8.288ZM123.584,0V-10.3h1.872l4.88,6.864V-10.3h2.16V0h-1.872l-4.88-6.864V0ZM134.32,0V-10.3h4.32a4.705,4.705,0,0,1,3.5,1.192A5.589,5.589,0,0,1,143.312-5.1a5.5,5.5,0,0,1-1.16,3.88A4.622,4.622,0,0,1,138.64,0Zm2.16-1.664h1.856a3.747,3.747,0,0,0,1.536-.28,1.835,1.835,0,0,0,.936-1.024A5.732,5.732,0,0,0,141.12-5.1a6.1,6.1,0,0,0-.288-2.128,1.726,1.726,0,0,0-.9-1.008,3.962,3.962,0,0,0-1.6-.272H136.48ZM.912,20V9.7H6.128a3.232,3.232,0,0,1,2.312.728A2.713,2.713,0,0,1,9.2,12.48a2.725,2.725,0,0,1-.32,1.384,2.257,2.257,0,0,1-.864.856,2.323,2.323,0,0,1,1.144.744,2.372,2.372,0,0,1,.424,1.528,2.878,2.878,0,0,1-.84,2.248A3.494,3.494,0,0,1,6.32,20Zm2.16-6.032H5.728a1.522,1.522,0,0,0,1.12-.344,1.327,1.327,0,0,0,.336-.968,1.373,1.373,0,0,0-.344-1.024A1.829,1.829,0,0,0,5.568,11.3h-2.5Zm0,4.448H5.808a1.791,1.791,0,0,0,1.2-.336A1.516,1.516,0,0,0,7.392,16.9a1.3,1.3,0,0,0-.376-1.024,2.057,2.057,0,0,0-1.352-.336H3.072ZM15.616,20.16a5.1,5.1,0,0,1-3.368-1.032,3.681,3.681,0,0,1-1.24-3V9.7h2.16v6.272a2.277,2.277,0,0,0,.64,1.768,2.587,2.587,0,0,0,1.808.584,2.556,2.556,0,0,0,1.8-.584,2.293,2.293,0,0,0,.632-1.768V9.7h2.16v6.432a3.692,3.692,0,0,1-1.232,3A5.071,5.071,0,0,1,15.616,20.16ZM21.952,20V9.7h2.16V20Zm3.984,0V9.7H28.1v8.64h5.072V20Zm8.416,0V9.7h4.32a4.705,4.705,0,0,1,3.5,1.192A5.589,5.589,0,0,1,43.344,14.9a5.5,5.5,0,0,1-1.16,3.88A4.622,4.622,0,0,1,38.672,20Zm2.16-1.664h1.856a3.747,3.747,0,0,0,1.536-.28,1.835,1.835,0,0,0,.936-1.024,5.732,5.732,0,0,0,.312-2.136,6.1,6.1,0,0,0-.288-2.128,1.726,1.726,0,0,0-.9-1.008,3.961,3.961,0,0,0-1.6-.272H36.512Z" data-name="Path 3291" transform="translate(625 2400)"/><g id="Ellipse_16" fill="#fff" stroke="#17263f" stroke-width="2" data-name="Ellipse 16" transform="translate(588 2184)"><circle cx="80" cy="80" r="80" stroke="none"/><circle cx="80" cy="80" r="79" fill="none"/></g><g id="Group_278" data-name="Group 278" transform="translate(628 2225)"><g id="Group_277" data-name="Group 277" transform="translate(0 0)"><path id="Path_192" fill="#fff" d="M728.73,494.726a2.578,2.578,0,1,1-2.578-2.578,2.578,2.578,0,0,1,2.578,2.578Zm0,0" data-name="Path 192" transform="translate(-675.428 -430.006)"/><path id="Path_193" fill="#fff" d="M728.73,265.305a2.578,2.578,0,1,1-2.578-2.578,2.578,2.578,0,0,1,2.578,2.578Zm0,0" data-name="Path 193" transform="translate(-675.428 -248.084)"/><path id="Path_194" fill="#fff" d="M777.179,457.527a2.578,2.578,0,1,1-2.578-2.578,2.577,2.577,0,0,1,2.578,2.578Zm0,0" data-name="Path 194" transform="translate(-713.846 -400.509)"/><path id="Path_195" fill="#fff" d="M777.179,301.379A2.578,2.578,0,1,1,774.6,298.8a2.578,2.578,0,0,1,2.578,2.578Zm0,0" data-name="Path 195" transform="translate(-713.846 -276.689)"/><path id="Path_196" fill="#17263f" d="M569.539,507.964a12.254,12.254,0,0,1-11.147-7.133,12.28,12.28,0,0,1-23.429-5.173V495.3a12.143,12.143,0,0,1-7.891-5.518,1.41,1.41,0,0,1,.273-1.8,1.058,1.058,0,0,1,1.59.31,10.131,10.131,0,0,0,7.391,4.624,1.1,1.1,0,0,1,.787.5,1.381,1.381,0,0,1,.227.979,10.11,10.11,0,0,0-.091,1.255,9.889,9.889,0,0,0,10.011,9.728,10,10,0,0,0,9.224-5.93,2.123,2.123,0,0,1,1.923-1.324,2.084,2.084,0,0,1,1.924,1.324,10,10,0,0,0,9.223,5.93,9.881,9.881,0,0,0,10.012-9.728,10.379,10.379,0,0,0-.092-1.272,1.4,1.4,0,0,1,.227-.98,1.13,1.13,0,0,1,.788-.5,10.222,10.222,0,0,0,4.043-1.358,1.068,1.068,0,0,1,1.529.55,1.37,1.37,0,0,1-.484,1.736,12.311,12.311,0,0,1-3.74,1.461v.362a12.315,12.315,0,0,1-12.3,12.323Zm0,0" data-name="Path 196" transform="translate(-518.65 -427.964)"/><g id="Group_276" data-name="Group 276"><g id="Group_275" clip-path="url(#clip-path)" data-name="Group 275"><path id="Path_197" fill="#17263f" d="M497.922,290.084a1.179,1.179,0,0,1-1.172-1.172,10.621,10.621,0,0,1,1.921-6.016c-4.594-1.734-7.672-5.749-7.672-10.265a10.849,10.849,0,0,1,3.188-7.578,7.985,7.985,0,0,1-1.751-4.953c0-4.173,3.266-7.641,7.719-8.485a7.772,7.772,0,0,1-.515-2.782,8.316,8.316,0,0,1,3.828-6.89,1.17,1.17,0,0,1,1.312,1.938,6.035,6.035,0,0,0-2.812,4.953,5.785,5.785,0,0,0,.969,3.125,1.162,1.162,0,0,1,.063,1.188,1.2,1.2,0,0,1-1.016.64c-4.047.109-7.219,2.891-7.219,6.328a5.79,5.79,0,0,0,1.86,4.171,1.229,1.229,0,0,1,.36.875,1.211,1.211,0,0,1-.407.859,8.748,8.748,0,0,0-3.234,6.61c0,3.969,3.14,7.485,7.625,8.516a1.163,1.163,0,0,1,.859.812,1.182,1.182,0,0,1-.3,1.156,8.324,8.324,0,0,0-2.437,5.8,1.16,1.16,0,0,1-1.172,1.172Zm0,0" data-name="Path 197" transform="translate(-491.005 -231.381)"/><path id="Path_198" fill="#17263f" d="M628.176,255.575a1.123,1.123,0,0,1-.625-.188,1.181,1.181,0,0,1-.36-1.624,7.882,7.882,0,0,0,1.265-4.235,8.324,8.324,0,0,0-2.437-5.8,1.2,1.2,0,0,1-.3-1.156,1.138,1.138,0,0,1,.859-.812c4.5-1.047,7.626-4.547,7.626-8.516a8.723,8.723,0,0,0-3.234-6.61,1.211,1.211,0,0,1-.407-.859,1.169,1.169,0,0,1,.36-.875,5.791,5.791,0,0,0,1.859-4.171c0-3.437-3.172-6.219-7.219-6.328a1.206,1.206,0,0,1-1.016-.625,1.16,1.16,0,0,1,.063-1.187,5.586,5.586,0,0,0,.969-3.125c0-3.5-3.344-6.345-7.454-6.345a9.893,9.893,0,0,0-1.3.095,1.14,1.14,0,0,1-.954-.313,1.19,1.19,0,0,1-.359-.937v-.141c-.078-3.984-4.078-7.406-8.765-7.469a9.125,9.125,0,0,0-8.235,4.453,2.268,2.268,0,0,1-3.937,0,9.087,9.087,0,0,0-8.235-4.469c-4.671.063-8.687,3.485-8.765,7.469v.124a1.168,1.168,0,0,1-1.313,1.25,9.879,9.879,0,0,0-1.3-.094,1.172,1.172,0,1,1,0-2.344h.343a9.553,9.553,0,0,1,3.313-5.89,12.1,12.1,0,0,1,7.7-2.86,11.523,11.523,0,0,1,10.219,5.516A11.48,11.48,0,0,1,606.614,192h.156a11.957,11.957,0,0,1,7.687,2.875,9.555,9.555,0,0,1,3.313,5.89h.343c5.406,0,9.8,3.891,9.8,8.687a7.7,7.7,0,0,1-.515,2.782c4.438.844,7.719,4.312,7.719,8.485a7.985,7.985,0,0,1-1.751,4.953,10.822,10.822,0,0,1,3.188,7.578c0,4.516-3.078,8.531-7.687,10.265a10.629,10.629,0,0,1,1.921,6.016,10.068,10.068,0,0,1-1.641,5.5,1.094,1.094,0,0,1-.968.547Zm0,0" data-name="Path 198" transform="translate(-556.556 -191.997)"/></g></g><path id="Path_199" fill="#fff" d="M543.575,292.386a1.28,1.28,0,0,1-.859-.327,5.854,5.854,0,0,0-3.4-1.254,1.289,1.289,0,1,1,0-2.578,8.332,8.332,0,0,1,5.105,1.908,1.282,1.282,0,0,1,.1,1.822,1.2,1.2,0,0,1-.945.43Zm0,0" data-name="Path 199" transform="translate(-527.253 -268.279)"/><path id="Path_200" fill="#17263f" d="M568.8,498.359a.592.592,0,0,1-.172-.017,1.28,1.28,0,0,1-1.1-1.444,9.444,9.444,0,0,1,2.544-5.07,1.288,1.288,0,1,1,1.788,1.856,6.94,6.94,0,0,0-1.788,3.558,1.28,1.28,0,0,1-1.272,1.117Zm0,0" data-name="Path 200" transform="translate(-551.671 -430.837)"/><path id="Path_201" fill="#fff" d="M830.078,352.829a1.291,1.291,0,0,1-1.289-1.186,1.313,1.313,0,0,1,1.186-1.392,5.547,5.547,0,0,0,3.161-1.513,1.289,1.289,0,1,1,1.84,1.8,8.3,8.3,0,0,1-4.813,2.269.13.13,0,0,1-.086.017Zm0,0" data-name="Path 201" transform="translate(-759.382 -315.956)"/><path id="Path_202" fill="#fff" d="M767.771,241.125a1.345,1.345,0,0,1-.826-.293,1.286,1.286,0,0,1-.155-1.822,7.62,7.62,0,0,0,1.427-4.245,1.289,1.289,0,0,1,2.578,0,10.18,10.18,0,0,1-2.029,5.912,1.316,1.316,0,0,1-1,.448Zm0,0" data-name="Path 202" transform="translate(-709.392 -223.972)"/><path id="Path_203" fill="#f01930" d="M678.664,343.511a1.3,1.3,0,0,1-1.289-1.289V285.09a1.289,1.289,0,1,1,2.578,0v57.131a1.288,1.288,0,0,1-1.289,1.289Zm0,0" data-name="Path 203" transform="translate(-638.669 -270.763)"/><path id="Path_204" fill="#f01930" d="M678.664,230.425a1.3,1.3,0,0,1-1.289-1.289v-8.921a1.289,1.289,0,1,1,2.578,0v8.921a1.3,1.3,0,0,1-1.289,1.289Zm0,0" data-name="Path 204" transform="translate(-638.669 -212.755)"/><path id="Path_205" fill="#f01930" d="M721.816,494.257a3.867,3.867,0,1,1,3.867-3.867,3.873,3.873,0,0,1-3.867,3.867Zm0-5.156a1.289,1.289,0,1,0,1.289,1.289,1.3,1.3,0,0,0-1.289-1.289Zm0,0" data-name="Path 205" transform="translate(-671.129 -427.028)"/><path id="Path_206" fill="#f01930" d="M696.222,461.241h-2.578c0-2.337-.533-4.056-1.6-5.087-1.754-1.684-4.882-1.564-7.391-1.478-.568.017-1.083.034-1.582.034v-2.578c.447,0,.962-.017,1.5-.034,2.853-.1,6.754-.241,9.281,2.2,1.564,1.547,2.371,3.884,2.371,6.943Zm0,0" data-name="Path 206" transform="translate(-643.767 -398.506)"/><path id="Path_207" fill="#f01930" d="M721.816,264.836a3.867,3.867,0,1,1,3.867-3.867,3.873,3.873,0,0,1-3.867,3.867Zm0-5.156a1.289,1.289,0,1,0,1.289,1.289,1.3,1.3,0,0,0-1.289-1.289Zm0,0" data-name="Path 207" transform="translate(-671.129 -243.67)"/><path id="Path_208" fill="#f01930" d="M686.42,294.343c-.671,0-1.324-.017-1.926-.051-.532-.017-1.048-.035-1.495-.035v-2.578c.5,0,1.031.018,1.581.035,2.528.086,5.655.206,7.391-1.478,1.066-1.031,1.6-2.733,1.6-5.088h2.578c0,3.077-.807,5.4-2.389,6.944-1.977,1.926-4.829,2.251-7.339,2.251Zm0,0" data-name="Path 208" transform="translate(-643.708 -265.969)"/><path id="Path_209" fill="#f01930" d="M770.265,457.058a3.867,3.867,0,1,1,3.867-3.867,3.874,3.874,0,0,1-3.867,3.867Zm0-5.156a1.289,1.289,0,1,0,1.289,1.289,1.3,1.3,0,0,0-1.289-1.289Zm0,0" data-name="Path 209" transform="translate(-709.581 -396.231)"/><path id="Path_210" fill="#f01930" d="M707.268,417.025H704.69c0-8.336-7.047-8.7-21.69-8.7V405.75c6.823,0,12.719,0,16.947,1.306,4.933,1.513,7.321,4.762,7.321,9.969Zm0,0" data-name="Path 210" transform="translate(-644.528 -361.873)"/><path id="Path_211" fill="#f01930" d="M770.265,300.91a3.867,3.867,0,1,1,3.867-3.867,3.874,3.874,0,0,1-3.867,3.867Zm0-5.156a1.289,1.289,0,1,0,1.289,1.289,1.3,1.3,0,0,0-1.289-1.289Zm0,0" data-name="Path 211" transform="translate(-709.581 -272.301)"/><path id="Path_212" fill="#f01930" d="M683,332.65v-2.578c14.643,0,21.69-.378,21.69-8.7h2.578c0,5.19-2.388,8.456-7.321,9.969-4.228,1.306-10.124,1.306-16.947,1.306Zm0,0" data-name="Path 212" transform="translate(-644.528 -294.818)"/><path id="Path_213" fill="#f01930" d="M797.016,385.634a1.344,1.344,0,0,1-.258-.034.956.956,0,0,1-.241-.069.941.941,0,0,1-.224-.12,1.87,1.87,0,0,1-.189-.155,1.288,1.288,0,0,1-.378-.912,1.322,1.322,0,0,1,.017-.258.926.926,0,0,1,.069-.24.9.9,0,0,1,.12-.224,1.717,1.717,0,0,1,.155-.189.789.789,0,0,1,.189-.155.9.9,0,0,1,.224-.12,1.2,1.2,0,0,1,.24-.069,1.335,1.335,0,0,1,1.169.344,1.5,1.5,0,0,1,.155.189,1.424,1.424,0,0,1,.12.224.921.921,0,0,1,.069.24,1.339,1.339,0,0,1,.034.258.674.674,0,0,1-.034.258,1.194,1.194,0,0,1-.069.241.934.934,0,0,1-.12.224,1.868,1.868,0,0,1-.155.189,1.218,1.218,0,0,1-.893.378Zm0,0" data-name="Path 213" transform="translate(-732.438 -343.38)"/><path id="Path_214" fill="#f01930" d="M758.823,385.631a1.336,1.336,0,0,1-.258-.034.947.947,0,0,1-.241-.069.934.934,0,0,1-.224-.12,1.831,1.831,0,0,1-.189-.155.833.833,0,0,1-.155-.189.935.935,0,0,1-.12-.224,1.222,1.222,0,0,1-.069-.241,2,2,0,0,1,0-.516,1.2,1.2,0,0,1,.189-.464,1.749,1.749,0,0,1,.155-.189.807.807,0,0,1,.189-.155.9.9,0,0,1,.224-.12,1.345,1.345,0,0,1,.738-.069c.086.017.172.051.241.069a.906.906,0,0,1,.224.12,1.858,1.858,0,0,1,.189.155,1.521,1.521,0,0,1,.155.189,1.434,1.434,0,0,1,.12.224.927.927,0,0,1,.069.24,1.329,1.329,0,0,1,.034.258,1.287,1.287,0,0,1-.378.911.834.834,0,0,1-.189.155.941.941,0,0,1-.224.12,1.2,1.2,0,0,1-.241.069,1.16,1.16,0,0,1-.24.034Zm0,0" data-name="Path 214" transform="translate(-702.19 -343.377)"/><path id="Path_215" fill="#f01930" d="M730.545,230.815a1.32,1.32,0,0,1-.258-.017.947.947,0,0,1-.241-.069.89.89,0,0,1-.223-.12,1.735,1.735,0,0,1-.189-.155,1.427,1.427,0,0,1-.155-.189.936.936,0,0,1-.121-.224,1.276,1.276,0,0,1-.068-.24,1.243,1.243,0,0,1-.018-.258c0-.086.018-.172.018-.258a1,1,0,0,1,.068-.241,1.432,1.432,0,0,1,.121-.224,1.733,1.733,0,0,1,.155-.189.815.815,0,0,1,.189-.155.932.932,0,0,1,.223-.12.95.95,0,0,1,.241-.069,1.236,1.236,0,0,1,.5,0,.951.951,0,0,1,.241.069.915.915,0,0,1,.223.12,1.866,1.866,0,0,1,.19.155,1.513,1.513,0,0,1,.154.189,1.457,1.457,0,0,1,.121.224,1.374,1.374,0,0,1,.069.241,1.96,1.96,0,0,1,0,.516,1.025,1.025,0,0,1-.069.24.947.947,0,0,1-.121.224,1.745,1.745,0,0,1-.154.189,1.424,1.424,0,0,1-.19.155,2.505,2.505,0,0,1-.223.12,1.2,1.2,0,0,1-.241.069,1.078,1.078,0,0,1-.241.017Zm0,0" data-name="Path 215" transform="translate(-679.785 -219.954)"/><path id="Path_216" fill="#f01930" d="M730.488,540.506a1.342,1.342,0,0,1-.258-.034.954.954,0,0,1-.241-.069.939.939,0,0,1-.223-.12,1.709,1.709,0,0,1-.189-.155,1.408,1.408,0,0,1-.155-.189.946.946,0,0,1-.121-.224,1.28,1.28,0,0,1-.068-.241,1.243,1.243,0,0,1-.035-.258.654.654,0,0,1,.035-.258.976.976,0,0,1,.068-.24.947.947,0,0,1,.121-.224,1.611,1.611,0,0,1,.155-.189.785.785,0,0,1,.189-.155.9.9,0,0,1,.223-.12.954.954,0,0,1,.241-.069,1.2,1.2,0,0,1,.5,0,.951.951,0,0,1,.241.069.871.871,0,0,1,.223.12,1.887,1.887,0,0,1,.19.155,1.5,1.5,0,0,1,.154.189.945.945,0,0,1,.121.224,1.038,1.038,0,0,1,.069.24,1.974,1.974,0,0,1,0,.516,1.4,1.4,0,0,1-.069.241.944.944,0,0,1-.121.224,1.836,1.836,0,0,1-.154.189,1.521,1.521,0,0,1-.19.155.91.91,0,0,1-.223.12,1.207,1.207,0,0,1-.241.069.555.555,0,0,1-.241.034Zm0,0" data-name="Path 216" transform="translate(-679.727 -466.659)"/><path id="Path_217" fill="#f01930" d="M555.8,350.589h-.086a1.276,1.276,0,0,1-1.2-1.358,12.463,12.463,0,0,1,1.289-4.452,11.131,11.131,0,0,1,7.631-5.981,1.292,1.292,0,1,1,.619,2.509,9.1,9.1,0,0,0-6.943,8.078,1.337,1.337,0,0,1-1.307,1.2Zm0,0" data-name="Path 217" transform="translate(-541.463 -308.66)"/><path id="Path_218" fill="#f01930" d="M612.269,263.637a1.291,1.291,0,0,1-.43-2.509c.189-.069,4.366-1.616,4.76-5.655a1.295,1.295,0,1,1,2.578.241c-.533,5.706-6.221,7.768-6.462,7.854a1.4,1.4,0,0,1-.447.069Zm0,0" data-name="Path 218" transform="translate(-586.242 -241.473)"/><path id="Path_219" fill="#f01930" d="M617.456,464.979a1.221,1.221,0,0,1-.55-.12c-6.617-3.146-6-10.467-5.982-10.777a1.294,1.294,0,0,1,2.578.224c-.017.241-.447,5.861,4.521,8.216a1.294,1.294,0,0,1-.568,2.457Zm0,0" data-name="Path 219" transform="translate(-586.173 -399.418)"/><path id="Path_220" fill="#f01930" d="M621.865,384.108a1.295,1.295,0,0,1-.568-2.458,4.452,4.452,0,0,0,2.32-4.228,1.3,1.3,0,0,1,1.169-1.392,1.274,1.274,0,0,1,1.392,1.151c.017.189.394,4.813-3.781,6.789a.991.991,0,0,1-.533.138Zm0,0" data-name="Path 220" transform="translate(-593.765 -338.073)"/></g></g><path id="Path_3290" fill="#17263f" d="M.969,0V-10.948H8.823v1.785H3.264v2.8h4.93V-4.59H3.264v2.822H8.823V0ZM9.656,0l3.961-5.491L9.758-10.948h2.7l2.533,3.655,2.533-3.655h2.7L16.371-5.491,20.332,0H17.6l-2.6-3.655L12.393,0ZM26.163.17a5.649,5.649,0,0,1-4.216-1.487,5.533,5.533,0,0,1-1.462-4.055A5.946,5.946,0,0,1,21.9-9.6a5.544,5.544,0,0,1,4.241-1.513,9.929,9.929,0,0,1,1.777.144,9.069,9.069,0,0,1,1.487.4v2.006a8.046,8.046,0,0,0-3.094-.595,3.4,3.4,0,0,0-2.686.935,4.253,4.253,0,0,0-.816,2.856q0,3.6,3.536,3.6a8.683,8.683,0,0,0,1.581-.144,7.71,7.71,0,0,0,1.5-.434V-.323A11.207,11.207,0,0,1,27.94.034,10.535,10.535,0,0,1,26.163.17ZM31.025,0V-10.948h7.854v1.785H33.32v2.8h4.93V-4.59H33.32v2.822h5.559V0Zm9.452,0V-10.948h5.134a4.077,4.077,0,0,1,2.117.493A3.1,3.1,0,0,1,48.96-9.112a4.425,4.425,0,0,1,.408,1.938A3.99,3.99,0,0,1,48.9-5.219,3.263,3.263,0,0,1,47.575-3.9a4.186,4.186,0,0,1-2.032.467H42.772V0Zm2.295-5.253h2.3a1.978,1.978,0,0,0,1.487-.519,1.932,1.932,0,0,0,.5-1.4,2.033,2.033,0,0,0-.476-1.453,1.88,1.88,0,0,0-1.428-.5h-2.38ZM53.329,0V-9.18H49.963v-1.768h9.01V-9.18H55.624V0Zm6.9,0V-10.948h2.295V0Zm9.214.17q-5.321,0-5.321-5.593a5.973,5.973,0,0,1,1.343-4.352,5.4,5.4,0,0,1,3.978-1.343,5.4,5.4,0,0,1,3.978,1.343,5.973,5.973,0,0,1,1.343,4.352Q74.766.17,69.445.17Zm0-1.955a2.748,2.748,0,0,0,2.27-.893,4.321,4.321,0,0,0,.722-2.746,4.489,4.489,0,0,0-.722-2.9,2.834,2.834,0,0,0-2.27-.841,2.834,2.834,0,0,0-2.27.841,4.489,4.489,0,0,0-.723,2.9,4.321,4.321,0,0,0,.723,2.746A2.748,2.748,0,0,0,69.445-1.785ZM76.364,0V-10.948h1.989l5.185,7.293v-7.293h2.3V0H83.844L78.659-7.293V0ZM87.431,0l4.182-10.948h2.516L98.294,0h-2.38L94.877-2.635H90.848L89.828,0Zm3.757-4.4h3.349l-1.683-4.4Zm8.7,4.4V-10.948h2.295v9.18h5.389V0ZM119.1,2.924a2.542,2.542,0,0,1-2.006-.731A3.185,3.185,0,0,1,116.416.1q-4.182-.561-4.182-5.525a5.973,5.973,0,0,1,1.343-4.352,5.4,5.4,0,0,1,3.978-1.343,5.4,5.4,0,0,1,3.978,1.343,5.973,5.973,0,0,1,1.343,4.352q0,5.151-4.505,5.559a1.216,1.216,0,0,0,.331.918,1.475,1.475,0,0,0,.927.238,3.931,3.931,0,0,0,.612-.051,4.185,4.185,0,0,0,.6-.136V2.7a5.636,5.636,0,0,1-.765.153A6.843,6.843,0,0,1,119.1,2.924Zm-1.547-4.709a2.748,2.748,0,0,0,2.27-.893,4.321,4.321,0,0,0,.723-2.746,4.489,4.489,0,0,0-.723-2.9,2.834,2.834,0,0,0-2.27-.841,2.834,2.834,0,0,0-2.269.841,4.489,4.489,0,0,0-.723,2.9,4.321,4.321,0,0,0,.723,2.746A2.748,2.748,0,0,0,117.555-1.785ZM129.285.17a5.423,5.423,0,0,1-3.579-1.1,3.911,3.911,0,0,1-1.317-3.187v-6.834h2.295v6.664a2.419,2.419,0,0,0,.68,1.878,2.748,2.748,0,0,0,1.921.62,2.716,2.716,0,0,0,1.912-.62,2.436,2.436,0,0,0,.672-1.878v-6.664h2.295v6.834a3.923,3.923,0,0,1-1.309,3.187A5.388,5.388,0,0,1,129.285.17ZM134.912,0l4.182-10.948h2.516L145.775,0H143.4l-1.037-2.635h-4.029L137.309,0Zm3.757-4.4h3.349l-1.683-4.4Zm8.7,4.4V-10.948h2.295v9.18h5.389V0Zm8.942,0V-10.948h2.295V0Zm6.919,0V-9.18h-3.366v-1.768h9.01V-9.18h-3.349V0Zm10.319,0V-4.046l-3.927-6.9h2.4L174.709-6l2.686-4.947h2.38l-3.927,6.9V0ZM4.369,20.17a11.85,11.85,0,0,1-1.964-.153,6.75,6.75,0,0,1-1.572-.442V17.552a9.61,9.61,0,0,0,1.615.493,8.049,8.049,0,0,0,1.7.187A5.116,5.116,0,0,0,5.9,18.011a.954.954,0,0,0,.561-1,1.193,1.193,0,0,0-.238-.782,2,2,0,0,0-.825-.518,16.847,16.847,0,0,0-1.658-.519A5.414,5.414,0,0,1,1.326,14a2.7,2.7,0,0,1-.7-1.972A2.722,2.722,0,0,1,1.734,9.7a5.356,5.356,0,0,1,3.213-.816,11.638,11.638,0,0,1,1.836.136,8.027,8.027,0,0,1,1.377.323v2.023a8.153,8.153,0,0,0-2.907-.527,4.944,4.944,0,0,0-1.683.229.923.923,0,0,0-.612.961,1,1,0,0,0,.221.68,1.885,1.885,0,0,0,.756.459,15.631,15.631,0,0,0,1.5.459,6.972,6.972,0,0,1,2.074.85A2.722,2.722,0,0,1,8.526,15.6a3.428,3.428,0,0,1,.28,1.411,2.789,2.789,0,0,1-1.088,2.3A5.333,5.333,0,0,1,4.369,20.17ZM10.4,20V9.052h7.854v1.785H12.7v2.8h4.93V15.41H12.7v2.822h5.559V20Zm9.452,0V9.052h5.253a3.526,3.526,0,0,1,2.771.995,3.883,3.883,0,0,1,.884,2.677,3.076,3.076,0,0,1-2.176,3.06,1.992,1.992,0,0,1,.434.476,4.243,4.243,0,0,1,.331.68L28.679,20H26.3l-1.292-2.941a1.341,1.341,0,0,0-.374-.527,1.158,1.158,0,0,0-.68-.153h-1.8V20Zm2.3-5.525h2.363a2.235,2.235,0,0,0,1.411-.4,1.617,1.617,0,0,0,.51-1.351,1.791,1.791,0,0,0-.442-1.343,1.872,1.872,0,0,0-1.343-.425h-2.5ZM33.1,20,28.917,9.052h2.4l3.026,8.381,3.043-8.381h2.4L35.615,20Zm7.854,0V9.052h2.295V20Zm9.571.17a5.649,5.649,0,0,1-4.216-1.487,5.533,5.533,0,0,1-1.462-4.055A5.946,5.946,0,0,1,46.265,10.4a5.544,5.544,0,0,1,4.242-1.513,9.929,9.929,0,0,1,1.777.144,9.069,9.069,0,0,1,1.487.4v2.006a8.046,8.046,0,0,0-3.094-.595,3.4,3.4,0,0,0-2.686.935,4.253,4.253,0,0,0-.816,2.856q0,3.6,3.536,3.6a8.683,8.683,0,0,0,1.581-.145,7.71,7.71,0,0,0,1.5-.434v2.023a11.206,11.206,0,0,1-1.487.357A10.535,10.535,0,0,1,50.524,20.17ZM55.386,20V9.052H63.24v1.785H57.681v2.8h4.93V15.41h-4.93v2.822H63.24V20Zm12.852.17a11.85,11.85,0,0,1-1.964-.153,6.75,6.75,0,0,1-1.573-.442V17.552a9.61,9.61,0,0,0,1.615.493,8.049,8.049,0,0,0,1.7.187,5.116,5.116,0,0,0,1.751-.221.954.954,0,0,0,.561-1,1.193,1.193,0,0,0-.238-.782,2,2,0,0,0-.825-.518,16.848,16.848,0,0,0-1.658-.519A5.414,5.414,0,0,1,65.195,14a2.7,2.7,0,0,1-.7-1.972A2.722,2.722,0,0,1,65.6,9.7a5.356,5.356,0,0,1,3.213-.816,11.638,11.638,0,0,1,1.836.136,8.027,8.027,0,0,1,1.377.323v2.023a8.153,8.153,0,0,0-2.907-.527,4.944,4.944,0,0,0-1.683.229.923.923,0,0,0-.612.961,1,1,0,0,0,.221.68,1.885,1.885,0,0,0,.757.459,15.631,15.631,0,0,0,1.5.459,6.972,6.972,0,0,1,2.074.85A2.722,2.722,0,0,1,72.395,15.6a3.428,3.428,0,0,1,.281,1.411,2.789,2.789,0,0,1-1.088,2.3A5.333,5.333,0,0,1,68.238,20.17Z" data-name="Path 3290" transform="translate(129 2400)"/><path id="Path_3293" fill="#17263f" d="M10.692,0H15.51l2.574-23.1H14.916L13.068-4.752H13L11.22-23.1h-3.5L6.006-4.884H5.94L4.026-23.1H.495L3.069,0H8.052L9.339-12.309H9.4ZM23.529-9.9h4.125V0h3.7V-23.1h-3.7v9.9H23.529v-9.9H19.9V0h3.63ZM42.042-23.1H36.729L33.033,0h3.333l.627-4.191h4.455L42.075,0h3.663Zm-2.871,4.092h.066L40.953-7.326h-3.5Zm5.94-.792h3.795V0h3.63V-19.8h3.8v-3.3H45.111Zm17.457,2.244c0,2.64.957,4.554,3.993,7.227,2.376,2.079,3.1,3.333,3.1,5.016,0,1.65-.726,2.244-1.881,2.244S65.9-3.663,65.9-5.313v-1.65H62.469v1.419c0,3.7,1.848,5.808,5.412,5.808s5.412-2.112,5.412-5.808c0-2.64-.957-4.554-3.993-7.227-2.376-2.079-3.1-3.333-3.1-5.016,0-1.65.66-2.277,1.815-2.277s1.815.627,1.815,2.277v.957H73.26v-.726c0-3.7-1.815-5.808-5.346-5.808S62.568-21.252,62.568-17.556ZM79-19.8h6.27v-3.3h-9.9V0h9.9V-3.3H79v-6.765h4.983v-3.3H79Zm7.458,0h3.795V0h3.63V-19.8H97.68v-3.3H86.46ZM98.8-17.556c0,2.64.957,4.554,3.993,7.227,2.376,2.079,3.1,3.333,3.1,5.016,0,1.65-.726,2.244-1.881,2.244s-1.881-.594-1.881-2.244v-1.65H98.7v1.419c0,3.7,1.848,5.808,5.412,5.808s5.412-2.112,5.412-5.808c0-2.64-.957-4.554-3.993-7.227-2.376-2.079-3.1-3.333-3.1-5.016,0-1.65.66-2.277,1.815-2.277s1.815.627,1.815,2.277v.957h3.432v-.726c0-3.7-1.815-5.808-5.346-5.808S98.8-21.252,98.8-17.556ZM116.556-23.1V-5.511c0,3.7,1.848,5.808,5.412,5.808s5.412-2.112,5.412-5.808V-23.1h-3.432V-5.28c0,1.65-.726,2.244-1.881,2.244s-1.881-.594-1.881-2.244V-23.1Zm12.837,5.544c0,2.64.957,4.554,3.993,7.227,2.376,2.079,3.1,3.333,3.1,5.016,0,1.65-.726,2.244-1.881,2.244s-1.881-.594-1.881-2.244v-1.65h-3.432v1.419c0,3.7,1.848,5.808,5.412,5.808s5.412-2.112,5.412-5.808c0-2.64-.957-4.554-3.993-7.227-2.376-2.079-3.1-3.333-3.1-5.016,0-1.65.66-2.277,1.815-2.277s1.815.627,1.815,2.277v.957h3.432v-.726c0-3.7-1.815-5.808-5.346-5.808S129.393-21.252,129.393-17.556ZM155.364-23.1h-5.313L146.355,0h3.333l.627-4.191h4.455L155.4,0h3.663Zm-2.871,4.092h.066l1.716,11.682h-3.5Zm13.6-4.092h-5.346V0h3.63V-8.679h1.716c3.63,0,5.412-2.013,5.412-5.709v-3C171.5-21.087,169.719-23.1,166.089-23.1Zm0,3.3c1.155,0,1.782.528,1.782,2.178v3.465c0,1.65-.627,2.178-1.782,2.178h-1.716V-19.8Zm14.718-3.3h-5.313L171.8,0h3.333l.627-4.191h4.455L180.84,0H184.5Zm-2.871,4.092H178l1.716,11.682h-3.5ZM197.472,0a6.8,6.8,0,0,1-.4-2.805V-6.369c0-2.409-.594-4.125-2.409-4.884v-.066c1.617-.759,2.376-2.277,2.376-4.653v-1.815c0-3.564-1.617-5.313-5.379-5.313h-5.478V0h3.63V-9.4h1.254c1.65,0,2.376.792,2.376,2.937v3.63A7.1,7.1,0,0,0,193.776,0Zm-5.907-19.8c1.287,0,1.848.726,1.848,2.376v2.277c0,1.848-.825,2.442-2.178,2.442h-1.419v-7.1Zm6.831,0h3.795V0h3.63V-19.8h3.795v-3.3H198.4ZM217.074-5.115a5.684,5.684,0,0,1-.132-1.287c0-1.485.429-2.607,1.848-4.521a10.051,10.051,0,0,0,2.442-6.633c0-3.7-1.815-5.808-5.346-5.808s-5.346,2.112-5.346,5.808v2.277h3.432v-2.508c0-1.65.66-2.277,1.815-2.277s1.815.627,1.815,2.277a9.32,9.32,0,0,1-2.079,6.039,8.192,8.192,0,0,0-1.881,5.214,4.321,4.321,0,0,0,.2,1.419Zm-3.4,1.617V0h3.5V-3.5Z" data-name="Path 3293" transform="translate(371 2171)"/><g id="Ellipse_17" fill="#fff" stroke="#17263f" stroke-width="2" data-name="Ellipse 17" transform="translate(186 2185)"><circle cx="80" cy="80" r="80" stroke="none"/><circle cx="80" cy="80" r="79" fill="none"/></g><g id="Group_283" data-name="Group 283" transform="translate(226 2225)"><path id="Path_221" fill="#f01930" d="M629.633,337.645l-9.64,9.106-4.626-4.76a1.333,1.333,0,1,0-1.912,1.858l5.549,5.7a1.359,1.359,0,0,0,1.886.04l10.6-10a1.331,1.331,0,0,0,.053-1.886,1.365,1.365,0,0,0-1.912-.053Zm0,0" data-name="Path 221" transform="translate(-582.363 -303.709)"/><path id="Path_225" fill="none" stroke="#17263f" stroke-width="2.5" d="M695.165,289.43a2.11,2.11,0,0,0-.924,2.234,14.609,14.609,0,0,1-8.146,16.536,14.858,14.858,0,0,1-9.43,1.04,2.122,2.122,0,0,0-2.234.924,14.788,14.788,0,0,1-5.856,5.259,14.492,14.492,0,0,1-13.144,0,14.836,14.836,0,0,1-5.857-5.259,2.023,2.023,0,0,0-.4-.449c-.046-.04-.1-.069-.147-.105a2.015,2.015,0,0,0-.354-.213,1.82,1.82,0,0,0-.177-.07,2.176,2.176,0,0,0-.4-.1c-.061-.008-.12-.019-.181-.023-.04,0-.08-.015-.12-.015a2.246,2.246,0,0,0-.457.048,14.868,14.868,0,0,1-9.426-1.04,14.6,14.6,0,0,1-8.15-16.536,2.109,2.109,0,0,0-.924-2.234,14.706,14.706,0,0,1,0-24.853,2.107,2.107,0,0,0,.924-2.234,14.707,14.707,0,0,1,17.576-17.576,2.117,2.117,0,0,0,2.232-.924,14.707,14.707,0,0,1,24.855,0,2.111,2.111,0,0,0,2.234.924,14.705,14.705,0,0,1,17.576,17.576,2.112,2.112,0,0,0,.924,2.234,14.7,14.7,0,0,1,0,24.853Z" data-name="Path 225" transform="translate(-622 -237)"/><g id="Ellipse_14" fill="none" stroke="#17263f" stroke-width="2.5" data-name="Ellipse 14" transform="translate(17.502 17.239)"><circle cx="22.502" cy="22.502" r="22.502" stroke="none"/><circle cx="22.502" cy="22.502" r="21.252" fill="none"/></g></g></g></svg>