<svg xmlns="http://www.w3.org/2000/svg" width="138" height="57" fill="none" viewBox="0 0 138 57"><g clip-path="url(#clip0)"><path fill="#FF002E" d="M4.778 51.756H137.968V51.788C137.968 52.4112 137.845 53.0283 137.607 53.6041C137.368 54.1799 137.019 54.7032 136.578 55.1439C136.137 55.5846 135.614 55.9342 135.038 56.1727C134.462 56.4112 133.845 56.5339 133.222 56.5339H0C0 55.9065 0.123576 55.2851 0.363693 54.7054C0.60381 54.1258 0.955766 53.5991 1.39944 53.1554C1.84312 52.7117 2.36985 52.3597 2.94954 52.1196C3.52923 51.8795 4.15054 51.756 4.778 51.756V51.756Z"/><path fill="#17263F" d="M88.4648 2.4652C87.8564 1.61866 87.003 0.978926 86.0198 0.632192C83.7602 -0.210731 81.2725 -0.210731 79.0128 0.632192C78.0261 0.987999 77.1652 1.62528 76.5368 2.4652C76.3188 2.8022 72.3258 14.8242 69.8018 22.5172H49.8748C49.6205 22.4939 49.3734 22.4192 49.1486 22.2979C48.9239 22.1766 48.726 22.011 48.5668 21.8111C48.1756 21.3055 47.9707 20.6804 47.9868 20.0412C47.9793 19.5236 48.1024 19.0125 48.3448 18.5552C48.5647 18.1307 48.9212 17.7929 49.3568 17.5962H65.4368V14.7662C65.4368 13.879 65.0844 13.0282 64.4571 12.4009C63.8298 11.7736 62.979 11.4212 62.0918 11.4212H50.2208C49.9066 11.4387 49.5927 11.3812 49.3051 11.2534C49.0175 11.1256 48.7644 10.9311 48.5668 10.6861C48.1757 10.1831 47.9707 9.56017 47.9868 8.92315C47.9735 8.26397 48.1851 7.61992 48.5868 7.09716C48.7763 6.84572 49.0238 6.64381 49.3081 6.50853C49.5924 6.37325 49.9052 6.30862 50.2198 6.32018H65.4358V3.63817C65.4358 2.75102 65.0834 1.90019 64.4561 1.27288C63.8288 0.645568 62.978 0.293202 62.0908 0.293202H49.1668C48.054 0.252049 46.9473 0.476729 45.9386 0.94872C44.93 1.42071 44.0483 2.1264 43.3668 3.00719C42.0498 4.70742 41.3644 6.8124 41.4278 8.96215C41.4303 9.95975 41.5758 10.9519 41.8598 11.9082C42.12 12.8312 42.5294 13.7054 43.0718 14.4962C42.5218 15.292 42.1068 16.1732 41.8438 17.1042C41.5679 18.0668 41.4295 19.0637 41.4328 20.0652C41.4286 20.8909 41.5179 21.7145 41.6988 22.5202H29.7898C28.7971 22.5326 27.82 22.2721 26.9652 21.767C26.1105 21.262 25.4109 20.5318 24.9428 19.6562C23.8801 17.8012 23.3548 15.6869 23.4258 13.5502V3.91619C23.4258 2.93489 23.036 1.99374 22.3421 1.29986C21.6482 0.605971 20.7071 0.216176 19.7258 0.216176H17.0848C17.0848 0.216176 17.0008 14.5942 17.0008 14.9442C16.9844 16.7148 17.2111 18.4793 17.6748 20.1882C18.2388 22.4285 19.4652 24.4467 21.1938 25.9792C23.6326 27.9066 26.6897 28.8799 29.7938 28.7172L71.2188 28.7292C72.2161 28.7293 73.188 28.4154 73.9968 27.832C74.8056 27.2487 75.4102 26.4255 75.7248 25.4792L81.9578 6.7282C82.0081 6.61702 82.0923 6.52456 82.1982 6.46404C82.3042 6.40352 82.4265 6.378 82.5478 6.39116C82.8285 6.39116 82.9902 6.50353 83.0328 6.7282L89.3998 25.5062C89.7187 26.4464 90.3244 27.2631 91.1316 27.8412C91.9388 28.4194 92.907 28.7299 93.8998 28.7292H97.2618C96.3958 26.0122 88.8158 2.9292 88.4648 2.4652Z"/><path fill="#17263F" d="M112.435 17.5952H106.344C105.695 17.5381 105.043 17.6542 104.455 17.9318C103.866 18.2095 103.361 18.6386 102.993 19.1752C102.517 19.9931 102.283 20.9295 102.319 21.8752C102.319 22.0142 102.334 23.7202 102.35 25.4122C102.354 25.8651 102.269 26.3142 102.098 26.7339C101.928 27.1535 101.676 27.5351 101.357 27.8568C101.039 28.1786 100.659 28.434 100.241 28.6082C99.8231 28.7825 99.3747 28.8722 98.9218 28.8722H96.1439V19.4072C96.0531 17.4178 96.6565 15.4587 97.8509 13.8652C98.555 13.0342 99.4443 12.3801 100.447 11.9554C101.45 11.5308 102.539 11.3474 103.626 11.4202H111.381C111.703 11.4342 112.025 11.3709 112.318 11.2358C112.611 11.1007 112.868 10.8975 113.067 10.6432C113.442 10.1499 113.636 9.54189 113.615 8.9222C113.634 8.2834 113.441 7.65625 113.067 7.13821C112.875 6.87376 112.62 6.66077 112.326 6.51809C112.032 6.37541 111.707 6.30739 111.381 6.32015H96.1439V3.72018C96.1439 2.81102 96.505 1.9391 97.1479 1.29623C97.7908 0.653353 98.6627 0.2922 99.5718 0.2922H112.435C113.542 0.249858 114.644 0.472173 115.648 0.940698C116.652 1.40922 117.53 2.11042 118.209 2.98617C119.465 4.71726 120.144 6.80067 120.148 8.93978C120.152 11.0789 119.48 13.1647 118.23 14.9002C117.548 15.7778 116.666 16.4802 115.659 16.9489C114.651 17.4176 113.546 17.6391 112.435 17.5952V17.5952Z"/><path fill="#17263F" d="M1.084 39.77C1.08345 39.4785 1.14801 39.1905 1.273 38.927C1.40023 38.6582 1.58329 38.4195 1.81 38.227C2.06 38.0173 2.3455 37.8541 2.653 37.745C3.01182 37.618 3.39041 37.5561 3.771 37.562C4.12737 37.5573 4.48148 37.6194 4.815 37.745C5.1172 37.8601 5.39329 38.0345 5.627 38.258C5.85426 38.4771 6.03309 38.7415 6.15199 39.034C6.27622 39.3425 6.3384 39.6725 6.33499 40.005H4.935C4.94312 39.8569 4.92018 39.7085 4.86766 39.5697C4.81514 39.4309 4.73419 39.3047 4.63 39.199C4.39496 38.9921 4.08753 38.8868 3.77499 38.906C3.46656 38.8871 3.16204 38.9828 2.92 39.175C2.82928 39.2443 2.75492 39.3327 2.70221 39.434C2.6495 39.5353 2.61972 39.6469 2.61499 39.761C2.61164 39.8669 2.63714 39.9716 2.68875 40.0641C2.74036 40.1566 2.81615 40.2333 2.908 40.286C3.13862 40.4243 3.38462 40.535 3.64099 40.616C3.93432 40.714 4.25399 40.8156 4.59999 40.9209C4.93633 41.0224 5.25853 41.1659 5.55899 41.3479C5.85102 41.5256 6.10109 41.7645 6.29199 42.048C6.50094 42.3867 6.60304 42.7805 6.58499 43.178C6.58443 43.4589 6.51581 43.7355 6.38499 43.984C6.24353 44.2525 6.05052 44.4903 5.817 44.684C5.5538 44.9021 5.25375 45.0714 4.931 45.184C4.56041 45.3142 4.16977 45.3782 3.77699 45.373C3.38462 45.3794 2.99413 45.3175 2.623 45.19C2.30299 45.0788 2.00971 44.902 1.76199 44.6709C1.52616 44.448 1.34069 44.1774 1.218 43.877C1.08898 43.5568 1.02474 43.2142 1.02899 42.869H2.495C2.48944 43.0248 2.51706 43.1799 2.57602 43.3242C2.63498 43.4685 2.72393 43.5986 2.83699 43.706C3.09568 43.9331 3.43329 44.0494 3.77699 44.0299C4.12118 44.0565 4.46351 43.959 4.742 43.755C4.83957 43.6788 4.91878 43.5815 4.97382 43.4706C5.02885 43.3597 5.0583 43.2379 5.06 43.114C5.06364 43.0047 5.0385 42.8964 4.98708 42.7998C4.93565 42.7033 4.85975 42.6219 4.767 42.564C4.53813 42.4179 4.29188 42.301 4.034 42.216C3.74066 42.114 3.421 42.014 3.075 41.916C2.73966 41.8239 2.41741 41.6895 2.116 41.516C1.82695 41.3489 1.57701 41.1218 1.383 40.85C1.17197 40.5305 1.06732 40.1526 1.084 39.77V39.77Z"/><path fill="#17263F" d="M24.534 41.4669C24.5388 41.9949 24.4367 42.5185 24.234 43.006C24.0432 43.465 23.7701 43.8853 23.428 44.246C23.0921 44.5989 22.6892 44.8813 22.243 45.0769C21.7903 45.2741 21.3018 45.376 20.808 45.376C20.3142 45.376 19.8257 45.2741 19.373 45.0769C18.9267 44.8814 18.5239 44.5989 18.188 44.246C17.8458 43.8854 17.5726 43.4651 17.382 43.006C16.983 42.0209 16.983 40.9191 17.382 39.934C17.5717 39.4726 17.8449 39.0502 18.188 38.688C18.5239 38.3351 18.9268 38.0525 19.373 37.8569C19.8257 37.6597 20.3142 37.5579 20.808 37.5579C21.3018 37.5579 21.7903 37.6597 22.243 37.8569C22.6892 38.0526 23.0921 38.3351 23.428 38.688C23.7709 39.0503 24.0442 39.4726 24.234 39.934C24.4356 40.4197 24.5376 40.941 24.534 41.4669V41.4669ZM18.549 41.4669C18.5449 41.8115 18.6071 42.1538 18.732 42.475C18.846 42.7669 19.0116 43.0358 19.221 43.2689C19.4221 43.4902 19.6673 43.667 19.9408 43.788C20.2143 43.9089 20.51 43.9716 20.809 43.9716C21.1081 43.9716 21.4038 43.9089 21.6772 43.788C21.9507 43.667 22.1959 43.4902 22.397 43.2689C22.6063 43.0357 22.772 42.7668 22.886 42.475C23.1302 41.8255 23.1302 41.1094 22.886 40.46C22.772 40.1681 22.6063 39.8992 22.397 39.666C22.1964 39.4438 21.9515 39.266 21.6779 39.1444C21.4044 39.0228 21.1084 38.96 20.809 38.96C20.5097 38.96 20.2136 39.0228 19.9401 39.1444C19.6665 39.266 19.4216 39.4438 19.221 39.666C19.0116 39.8992 18.846 40.1681 18.732 40.46C18.6075 40.7809 18.5457 41.1227 18.55 41.4669H18.549Z"/><path fill="#17263F" d="M40.536 43.91V45.3099H35.466V37.615H36.936V43.905L40.536 43.91Z"/><path fill="#17263F" d="M54.03 43.9709C54.2429 43.9878 54.4568 43.9583 54.6571 43.8845C54.8574 43.8107 55.0394 43.6943 55.1903 43.5433C55.3413 43.3924 55.4577 43.2104 55.5316 43.0101C55.6054 42.8098 55.6349 42.5957 55.618 42.3829V37.62H57.084V42.3829C57.0885 42.791 57.0117 43.1959 56.858 43.574C56.7122 43.9291 56.4962 44.2512 56.223 44.521C55.9446 44.7933 55.6144 45.0072 55.252 45.15C54.4656 45.4513 53.5955 45.4513 52.809 45.15C52.4466 45.0073 52.1164 44.7934 51.838 44.521C51.5646 44.2514 51.3486 43.9292 51.203 43.574C51.0493 43.1959 50.9724 42.791 50.977 42.3829V37.62H52.443V42.3829C52.426 42.5958 52.4553 42.8098 52.5291 43.0102C52.6029 43.2106 52.7193 43.3927 52.8703 43.5437C53.0213 43.6947 53.2033 43.8111 53.4037 43.8849C53.6041 43.9586 53.8181 43.988 54.031 43.9709H54.03Z"/><path fill="#17263F" d="M67.771 37.62H73.756V39.02H71.495V45.3099H70.029V39.02H67.769L67.771 37.62Z"/><path fill="#17263F" d="M85.97 45.3149H84.504V37.62H85.97V45.3149Z"/><path fill="#17263F" d="M104.351 41.4669C104.356 41.9949 104.254 42.5184 104.051 43.006C103.86 43.465 103.587 43.8852 103.245 44.246C102.909 44.5989 102.506 44.8813 102.06 45.0769C101.607 45.2741 101.119 45.376 100.625 45.376C100.131 45.376 99.6427 45.2741 99.19 45.0769C98.7437 44.8813 98.341 44.5989 98.0051 44.246C97.6629 43.8854 97.3897 43.4651 97.199 43.006C96.8001 42.0208 96.8001 40.9191 97.199 39.934C97.3887 39.4726 97.662 39.0502 98.0051 38.688C98.341 38.3351 98.7438 38.0525 99.19 37.8569C99.6427 37.6596 100.131 37.5577 100.625 37.5577C101.119 37.5577 101.607 37.6596 102.06 37.8569C102.506 38.0526 102.909 38.3351 103.245 38.688C103.588 39.0503 103.861 39.4727 104.051 39.934C104.252 40.4198 104.355 40.941 104.351 41.4669V41.4669ZM98.366 41.4669C98.3619 41.8115 98.4241 42.1538 98.549 42.475C98.6628 42.7669 98.8285 43.0359 99.038 43.2689C99.2373 43.4897 99.4805 43.6665 99.752 43.788C100.165 43.9705 100.625 44.0186 101.066 43.9254C101.508 43.8323 101.909 43.6026 102.213 43.2689C102.422 43.0357 102.587 42.7668 102.701 42.475C102.945 41.8255 102.945 41.1094 102.701 40.46C102.587 40.1682 102.422 39.8993 102.213 39.666C102.013 39.4438 101.768 39.266 101.494 39.1444C101.22 39.0228 100.924 38.96 100.625 38.96C100.326 38.96 100.03 39.0228 99.756 39.1444C99.4825 39.266 99.2376 39.4438 99.0371 39.666C98.8276 39.8991 98.662 40.168 98.548 40.46C98.4239 40.781 98.3624 41.1228 98.367 41.4669H98.366Z"/><path fill="#17263F" d="M121.446 37.62V45.3149H120.164L116.744 40.307V45.3149H115.278V37.62H116.56L119.98 42.6279V37.62H121.446Z"/><path fill="#17263F" d="M132.504 39.77C132.503 39.4785 132.568 39.1905 132.693 38.927C132.82 38.6581 133.003 38.4194 133.23 38.227C133.48 38.0173 133.765 37.8541 134.073 37.745C134.432 37.618 134.81 37.5561 135.191 37.562C135.547 37.5573 135.901 37.6193 136.235 37.745C136.537 37.8601 136.813 38.0345 137.047 38.258C137.274 38.4772 137.453 38.7415 137.572 39.034C137.696 39.3425 137.758 39.6725 137.755 40.005H136.355C136.363 39.8569 136.34 39.7085 136.288 39.5697C136.235 39.4309 136.154 39.3047 136.05 39.199C135.815 38.9921 135.508 38.8868 135.195 38.906C134.887 38.8871 134.582 38.9828 134.34 39.175C134.249 39.2443 134.175 39.3327 134.122 39.434C134.069 39.5353 134.04 39.6469 134.035 39.761C134.032 39.8669 134.057 39.9716 134.109 40.0641C134.16 40.1566 134.236 40.2333 134.328 40.286C134.559 40.4243 134.805 40.535 135.061 40.616C135.354 40.714 135.673 40.8156 136.02 40.9209C136.356 41.0224 136.678 41.1659 136.979 41.3479C137.271 41.5256 137.521 41.7645 137.712 42.048C137.921 42.3867 138.023 42.7805 138.005 43.178C138.004 43.4589 137.936 43.7355 137.805 43.984C137.664 44.2526 137.471 44.4904 137.237 44.684C136.974 44.902 136.674 45.0714 136.352 45.184C135.981 45.3142 135.591 45.3782 135.198 45.373C134.806 45.3794 134.415 45.3175 134.044 45.19C133.724 45.0787 133.431 44.9019 133.183 44.6709C132.948 44.4478 132.762 44.1772 132.64 43.877C132.511 43.5568 132.447 43.2142 132.451 42.869H133.917C133.911 43.0248 133.939 43.1799 133.998 43.3242C134.057 43.4685 134.146 43.5986 134.259 43.706C134.518 43.9334 134.856 44.0497 135.2 44.0299C135.544 44.0565 135.886 43.959 136.165 43.755C136.263 43.6788 136.342 43.5815 136.397 43.4706C136.452 43.3597 136.481 43.2379 136.483 43.114C136.487 43.0047 136.461 42.8964 136.41 42.7998C136.359 42.7033 136.283 42.6219 136.19 42.564C135.961 42.4178 135.715 42.3009 135.457 42.216C135.164 42.114 134.844 42.014 134.498 41.916C134.163 41.8239 133.84 41.6894 133.539 41.516C133.25 41.3488 133 41.1217 132.806 40.85C132.594 40.5309 132.488 40.1529 132.504 39.77Z"/></g><defs><clipPath id="clip0"><rect width="138" height="56.533" fill="#fff"/></clipPath></defs></svg>