<svg xmlns="http://www.w3.org/2000/svg" xmlns:xlink="http://www.w3.org/1999/xlink" width="42" height="41" viewBox="0 0 42 41">
  <defs>
    <clipPath id="clip-path">
      <rect id="Rectangle_2617" data-name="Rectangle 2617" width="42" height="41" transform="translate(0.367 0)" fill="#fff"/>
    </clipPath>
    <clipPath id="clip-path-2">
      <rect id="Rectangle_2620" data-name="Rectangle 2620" width="42" height="41" transform="translate(0.367 0)" fill="#17263f"/>
    </clipPath>
    <clipPath id="clip-path-3">
      <rect id="Rectangle_2628" data-name="Rectangle 2628" width="42" height="41" transform="translate(-0.017 0)" fill="#fff"/>
    </clipPath>
  </defs>
  <g id="Group_1183" data-name="Group 1183" transform="translate(-221 -3628)">
    <g id="Icon_feather-settings" data-name="Icon feather-settings" transform="translate(235.726 3651)">
      <path id="Path_1801" data-name="Path 1801" d="M16.565,15.033A1.533,1.533,0,1,1,15.033,13.5,1.533,1.533,0,0,1,16.565,15.033Z" transform="translate(-8.581 -8.581)" fill="none" stroke="#f0263c" stroke-linecap="round" stroke-linejoin="round" stroke-width="1.5"/>
      <path id="Path_1802" data-name="Path 1802" d="M12.292,9.712a.968.968,0,0,0,.194,1.067l.035.035a1.174,1.174,0,1,1-1.66,1.66l-.035-.035a.976.976,0,0,0-1.654.692v.1a1.173,1.173,0,1,1-2.346,0v-.053a1.016,1.016,0,0,0-1.7-.692l-.035.035a1.174,1.174,0,1,1-1.66-1.66l.035-.035a.976.976,0,0,0-.692-1.654h-.1a1.173,1.173,0,1,1,0-2.346h.053a1.016,1.016,0,0,0,.692-1.7L3.383,5.09a1.174,1.174,0,1,1,1.66-1.66l.035.035a.968.968,0,0,0,1.067.194h.047a.968.968,0,0,0,.587-.886v-.1a1.173,1.173,0,1,1,2.346,0v.053a.976.976,0,0,0,1.654.692l.035-.035a1.174,1.174,0,1,1,1.66,1.66l-.035.035a.968.968,0,0,0-.194,1.067v.047a.968.968,0,0,0,.886.587h.1a1.173,1.173,0,1,1,0,2.346h-.053a.968.968,0,0,0-.886.587Z" transform="translate(-1.5 -1.5)" fill="none" stroke="#f0263c" stroke-linecap="round" stroke-linejoin="round" stroke-width="1.5"/>
    </g>
    <path id="Path_3263" data-name="Path 3263" d="M817.813,263.625a2.813,2.813,0,1,1,2.813-2.813,2.812,2.812,0,0,1-2.813,2.813Zm0-4.219a1.406,1.406,0,1,0,1.406,1.406,1.406,1.406,0,0,0-1.406-1.406Zm0,0" transform="translate(-557.625 3375.625)" fill="#fff"/>
    <rect id="Rectangle_2614" data-name="Rectangle 2614" width="1" height="2" transform="translate(260 3646)" fill="#fff"/>
    <rect id="Rectangle_2615" data-name="Rectangle 2615" width="1" height="1" transform="translate(260 3644)" fill="#fff"/>
    <g id="Group_1140" data-name="Group 1140" transform="translate(220.633 3628)" clip-path="url(#clip-path)">
      <rect id="Rectangle_2616" data-name="Rectangle 2616" width="1" height="2" transform="translate(39.367 12)" fill="#fff"/>
      <path id="Path_3264" data-name="Path 3264" d="M537.421,367.314H510.7a7.735,7.735,0,0,1-.7-15.438,4.888,4.888,0,0,1,3.323-4.684,4.964,4.964,0,0,1,2.19-.234,9.851,9.851,0,0,1,17.1,0,4.951,4.951,0,0,1,2.19.234,4.887,4.887,0,0,1,3.324,4.689,7.735,7.735,0,0,1-.7,15.433Zm-22.492-18.985a3.566,3.566,0,0,0-1.153.193,3.487,3.487,0,0,0-2.32,3.905.7.7,0,0,1-.692.824,6.328,6.328,0,0,0-.063,12.657h26.72a6.328,6.328,0,0,0,0-12.657.768.768,0,0,1-.57-.25.724.724,0,0,1-.186-.572,3.488,3.488,0,0,0-2.321-3.905,3.546,3.546,0,0,0-1.953-.1.7.7,0,0,1-.788-.369,8.444,8.444,0,0,0-15.085,0,.7.7,0,0,1-.788.369,3.483,3.483,0,0,0-.8-.094Zm0,0" transform="translate(-502.789 -326.531)" fill="#fff"/>
    </g>
    <rect id="Rectangle_2618" data-name="Rectangle 2618" width="1" height="1" transform="translate(260 3652)" fill="#fff"/>
    <g id="Group_1143" data-name="Group 1143" transform="translate(220.633 3628)">
      <g id="Group_1142" data-name="Group 1142" transform="translate(0 0)" clip-path="url(#clip-path-2)">
        <rect id="Rectangle_2619" data-name="Rectangle 2619" width="1" height="2" transform="translate(39.367 21)" fill="#fff"/>
        <path id="Path_3267" data-name="Path 3267" d="M661.812,215.625a2.813,2.813,0,1,1,2.813-2.813,2.812,2.812,0,0,1-2.813,2.813Zm0-4.219a1.406,1.406,0,1,0,1.406,1.406,1.406,1.406,0,0,0-1.406-1.406Zm0,0" transform="translate(-640.541 -210)" fill="#fff"/>
      </g>
    </g>
    <rect id="Rectangle_2621" data-name="Rectangle 2621" width="2" height="2" transform="translate(241 3640)" fill="#fff"/>
    <rect id="Rectangle_2622" data-name="Rectangle 2622" width="2" height="1" transform="translate(241 3638)" fill="#fff"/>
    <rect id="Rectangle_2623" data-name="Rectangle 2623" width="2" height="1" transform="translate(241 3635)" fill="#fff"/>
    <path id="Path_3268" data-name="Path 3268" d="M739.812,233.625a2.813,2.813,0,1,1,2.813-2.813,2.813,2.813,0,0,1-2.813,2.813Zm0-4.219a1.406,1.406,0,1,0,1.406,1.406,1.406,1.406,0,0,0-1.406-1.406Zm0,0" transform="translate(-488.766 3402.11)" fill="#fff"/>
    <rect id="Rectangle_2624" data-name="Rectangle 2624" width="1" height="1" transform="translate(251 3643)" fill="#fff"/>
    <rect id="Rectangle_2625" data-name="Rectangle 2625" width="1" height="1" transform="translate(251 3640)" fill="#fff"/>
    <rect id="Rectangle_2626" data-name="Rectangle 2626" width="1" transform="translate(251 3638)" fill="#fff"/>
    <g id="Group_1145" data-name="Group 1145" transform="translate(220.633 3628)">
      <g id="Group_1144" data-name="Group 1144" transform="translate(0.383 0)" clip-path="url(#clip-path-3)">
        <rect id="Rectangle_2627" data-name="Rectangle 2627" width="1" height="1" transform="translate(29.983 18)" fill="#fff"/>
        <path id="Path_3269" data-name="Path 3269" d="M505.787,263.625a2.787,2.787,0,0,1-2.575-1.736,2.83,2.83,0,0,1,.6-3.065,2.767,2.767,0,0,1,3.037-.61,2.817,2.817,0,0,1-1.066,5.411Zm0-4.219a1.393,1.393,0,0,0-1.287.868,1.415,1.415,0,0,0,.3,1.533,1.383,1.383,0,0,0,1.519.3,1.408,1.408,0,0,0-.533-2.706Zm0,0" transform="translate(-502.821 -252.375)" fill="#fff"/>
      </g>
    </g>
    <rect id="Rectangle_2629" data-name="Rectangle 2629" width="2" height="2" transform="translate(223 3646)" fill="#fff"/>
    <rect id="Rectangle_2630" data-name="Rectangle 2630" width="2" height="1" transform="translate(223 3644)" fill="#fff"/>
    <rect id="Rectangle_2631" data-name="Rectangle 2631" width="2" height="2" transform="translate(223 3640)" fill="#fff"/>
    <rect id="Rectangle_2632" data-name="Rectangle 2632" width="2" height="1" transform="translate(223 3652)" fill="#fff"/>
    <rect id="Rectangle_2633" data-name="Rectangle 2633" width="2" height="2" transform="translate(223 3649)" fill="#fff"/>
    <path id="Path_3270" data-name="Path 3270" d="M583.812,233.625a2.813,2.813,0,1,1,2.813-2.813,2.812,2.812,0,0,1-2.813,2.813Zm0-4.219a1.406,1.406,0,1,0,1.406,1.406,1.406,1.406,0,0,0-1.406-1.406Zm0,0" transform="translate(-351.048 3402.11)" fill="#fff"/>
    <rect id="Rectangle_2634" data-name="Rectangle 2634" width="2" height="1" transform="translate(232 3643)" fill="#fff"/>
    <rect id="Rectangle_2635" data-name="Rectangle 2635" width="2" height="1" transform="translate(232 3640)" fill="#fff"/>
    <rect id="Rectangle_2636" data-name="Rectangle 2636" width="2" transform="translate(232 3638)" fill="#fff"/>
    <rect id="Rectangle_2637" data-name="Rectangle 2637" width="2" height="1" transform="translate(232 3646)" fill="#fff"/>
  </g>
</svg>
