<svg xmlns="http://www.w3.org/2000/svg" width="38.487" height="41" viewBox="0 0 38.487 41"><g id="Group_1148" data-name="Group 1148" transform="translate(-9 -7.996)"><path id="Path_3274" fill="#fff" d="M41.04,56.673h-9.2a.837.837,0,1,1,0-1.673h9.2a.837.837,0,1,1,0,1.673Z" data-name="Path 3274" transform="translate(-3.593 -7.677)"/><path id="Path_3275" fill="#fff" d="M37.937,52.531a.837.837,0,0,1-.837-.837V44.583a3.765,3.765,0,1,0-7.53,0v7.112a.837.837,0,0,1-.837.837h-9.2A7.53,7.53,0,0,1,12,45h0V30.477a.837.837,0,0,1,1.673,0V45a5.857,5.857,0,0,0,5.857,5.857H27.9V44.583a5.438,5.438,0,1,1,10.877,0V50.8a5.856,5.856,0,0,0,5.02-5.8V30.477a.837.837,0,1,1,1.673,0V45a7.53,7.53,0,0,1-7.53,7.53Zm-17.57-8.367H18.693a3.347,3.347,0,0,1-3.347-3.347V36.635a3.347,3.347,0,0,1,3.347-3.347h1.673a3.347,3.347,0,0,1,3.347,3.347v4.183A3.347,3.347,0,0,1,20.367,44.165Zm-1.673-9.2a1.673,1.673,0,0,0-1.673,1.673v4.183a1.673,1.673,0,0,0,1.673,1.673h1.673a1.673,1.673,0,0,0,1.673-1.673V36.635a1.673,1.673,0,0,0-1.673-1.673Z" data-name="Path 3275" transform="translate(-0.49 -3.535)"/><path id="Path_3276" fill="#f01930" d="M32.845,28.079a5.545,5.545,0,0,1-4.6-2.351,5.681,5.681,0,0,1-9.2,0l-.075.109-.075.1a4.648,4.648,0,0,1-.586.644l-.109.1a5.593,5.593,0,0,1-.694.519l-.134.042a6.569,6.569,0,0,1-.837.393h-.1a5.106,5.106,0,0,1-.92.268h-.092a6.859,6.859,0,0,1-.979.092h-.084a3.92,3.92,0,0,1-.443,0,1.176,1.176,0,0,1-.243,0,4.132,4.132,0,0,1-.552-.1,3.759,3.759,0,0,1-.443-.126,6.421,6.421,0,0,1-.628-.234l-.159-.084A4.961,4.961,0,0,1,9,23.059V12.183A4.359,4.359,0,0,1,13.518,8H42.969a4.359,4.359,0,0,1,4.518,4.183v10.7a5.313,5.313,0,0,1-4.911,5.2,5.7,5.7,0,0,1-4.359-1.431,5.111,5.111,0,0,1-.77-.912A5.571,5.571,0,0,1,32.845,28.079ZM15.877,26.147l.393.745-.31-.778a4.009,4.009,0,0,0,.569-.276l.092-.059a3.823,3.823,0,0,0,.469-.351l.075-.067a3.8,3.8,0,0,0,.393-.435,3.669,3.669,0,0,0,.343-.569,3.21,3.21,0,0,0,.226-.628,3.461,3.461,0,0,0,.075-.669.837.837,0,0,1,1.673,0,3.572,3.572,0,0,0,3.765,3.347,3.572,3.572,0,0,0,3.765-3.347.837.837,0,0,1,1.673,0,3.572,3.572,0,0,0,3.765,3.347,3.572,3.572,0,0,0,3.765-3.347.837.837,0,0,1,1.673,0,3.146,3.146,0,0,0,1.063,2.326,4.041,4.041,0,0,0,3.121,1.021A3.64,3.64,0,0,0,45.813,22.9V12.183a2.7,2.7,0,0,0-2.845-2.51H13.518a2.7,2.7,0,0,0-2.845,2.51V23.018a.741.741,0,0,1,0,.192,3.346,3.346,0,0,0,1.958,2.761l.125.067a4.083,4.083,0,0,0,.427.159l.318.092.351.059.167.059a3.631,3.631,0,0,0,.427,0,3.052,3.052,0,0,0,.7-.067h.084A3.829,3.829,0,0,0,15.877,26.147Z" data-name="Path 3276" transform="translate(0 0)"/></g></svg>