<svg xmlns="http://www.w3.org/2000/svg" width="34.727" height="42" viewBox="0 0 34.727 42">
  <g id="Group_447" data-name="Group 447" transform="translate(-706 -522)">
    <path id="Path_1797" data-name="Path 1797" d="M650.017,222.891a1.06,1.06,0,1,0-1.5,1.5l3.6,3.6a1.061,1.061,0,0,0,1.5,0l6.33-6.331a1.06,1.06,0,1,0-1.5-1.5l-5.581,5.581Zm0,0" transform="translate(68.803 326.159)" fill="#f01930"/>
    <g id="Icon_feather-lock" data-name="Icon feather-lock" transform="translate(707 523)">
      <path id="Path_1795" data-name="Path 1795" d="M8.136,16.5H33.591a3.636,3.636,0,0,1,3.636,3.636V36.5a3.636,3.636,0,0,1-3.636,3.636H8.136A3.636,3.636,0,0,1,4.5,36.5V20.136A3.636,3.636,0,0,1,8.136,16.5Z" transform="translate(-4.5 -0.136)" fill="none" stroke="#fff" stroke-linecap="round" stroke-linejoin="round" stroke-width="2"/>
      <path id="Path_1796" data-name="Path 1796" d="M10.5,19.364V12.091a9.091,9.091,0,0,1,18.182,0v7.273" transform="translate(-3.227 -3)" fill="none" stroke="#fff" stroke-linecap="round" stroke-linejoin="round" stroke-width="2"/>
    </g>
  </g>
</svg>
