<svg xmlns="http://www.w3.org/2000/svg" width="43.905" height="41.75" viewBox="0 0 43.905 41.75">
  <g id="Icon_feather-shopping-cart" data-name="Icon feather-shopping-cart" transform="translate(-0.5 -0.5)">
    <path id="Path_1807" data-name="Path 1807" d="M15.81,31.9A1.9,1.9,0,1,1,13.9,30,1.9,1.9,0,0,1,15.81,31.9Z" transform="translate(2.833 7.69)" fill="none" stroke="#f01930" stroke-linecap="round" stroke-linejoin="round" stroke-width="1.5"/>
    <path id="Path_1808" data-name="Path 1808" d="M32.31,31.9A1.9,1.9,0,1,1,30.4,30,1.9,1.9,0,0,1,32.31,31.9Z" transform="translate(7.286 7.69)" fill="none" stroke="#f01930" stroke-linecap="round" stroke-linejoin="round" stroke-width="1.5"/>
    <path id="Path_1809" data-name="Path 1809" d="M1.5,1.5H9.119l5.1,25.5a3.81,3.81,0,0,0,3.81,3.067H36.548A3.81,3.81,0,0,0,40.357,27L43.4,11.024H11.024" transform="translate(0 0)" fill="none" stroke="#fff" stroke-linecap="round" stroke-linejoin="round" stroke-width="2"/>
  </g>
</svg>
